<svg width="135" height="80" viewBox="0 0 135 80" fill="none" xmlns="http://www.w3.org/2000/svg">
<path d="M120.826 9.26656C120.575 9.14133 120.513 8.76566 120.638 8.51522C122.015 6.19858 122.328 5.50985 120.826 4.50806C116.38 1.44007 109.242 0 102.793 0C99.7254 0 96.8453 0.313059 94.466 0.939178C87.7666 2.69231 81.6306 7.95171 78.2495 14.839C78.1243 15.0895 77.8113 15.2773 77.5608 15.2147C75.3068 14.9016 72.9902 14.5886 70.7361 14.3381C69.3587 14.1503 67.9186 14.4007 66.2281 14.4633C66.1655 14.4633 66.1655 14.4007 66.1655 14.3381C66.4785 13.6494 66.6664 13.3363 66.8542 12.9607C67.042 12.585 67.1672 12.2093 67.3551 11.7084C67.4177 11.5832 67.2925 11.458 67.1672 11.3954C61.6574 10.7692 56.7737 11.7084 52.203 13.712C51.8899 13.8372 51.5769 13.7746 51.3891 13.5242C46.2549 7.51343 38.7415 3.88194 31.6663 3.88194C31.4785 3.88194 31.2906 3.88194 31.1028 3.88194C23.4642 4.06977 11.881 8.4526 6.74678 14.7138C5.61977 16.0913 6.12067 16.7174 8.06163 18.5331C8.24947 18.721 8.31208 19.034 8.12425 19.2845C2.80224 25.1074 -2.08149 34.6244 2.48918 47.0841C2.80224 47.8981 3.6788 48.2111 4.43015 47.8355C5.18149 47.4598 5.99544 47.2094 6.74678 47.2094C7.24768 47.2094 7.68596 47.4598 7.99902 47.8981C12.6949 54.2845 20.8345 58.5421 29.6001 58.5421C30.5393 58.5421 31.5411 58.4795 32.5429 58.3543C33.2316 58.2917 33.8577 58.7926 33.9203 59.4813C34.1082 61.1092 34.4212 62.7371 34.9221 64.2398C36.9883 70.1879 41.8094 73.6942 47.3819 76.2613C55.3336 79.8928 63.7236 80.6441 72.3014 79.5171C79.9401 78.5153 87.0152 76.0108 93.026 71.0019C97.9097 66.9321 101.04 61.9231 100.852 55.3489C100.852 54.5976 101.479 53.9714 102.293 54.0341C102.355 54.0341 102.355 54.0341 102.418 54.0341C102.919 54.0341 103.42 54.0967 103.983 54.0967C115.691 54.0967 125.709 46.2702 129.153 36.7532C129.278 36.3775 129.591 36.0018 130.03 35.8766C130.405 35.7514 130.906 35.6888 131.344 35.6888C131.72 35.6888 132.158 35.7514 132.597 35.814C133.411 36.0018 134.225 35.3757 134.287 34.5618C134.913 21.1628 127.525 13.3989 120.826 9.26656ZM45.5661 17.4061C44.6896 17.9696 43.8756 18.5957 43.0617 19.2218C32.042 26.3596 32.7933 40.5725 32.9812 48.0233C32.9812 48.8373 33.0438 49.6512 33.0438 50.4652C33.1064 52.4688 31.6037 54.0967 29.6001 54.0967H29.5375C22.2745 54.0967 15.1368 50.4652 11.2548 44.8927C11.067 44.5797 10.1904 43.3274 8.49992 42.8265C7.56074 42.5761 6.74678 42.6387 6.24589 42.7639C5.99544 42.8265 5.74499 42.6387 5.68238 42.3882C5.2441 40.4473 4.80582 37.6297 5.30671 34.3113C6.12067 29.0519 8.87559 24.8569 11.6931 21.8515L14.3854 19.034C14.5733 18.8462 14.5733 18.4705 14.3854 18.2827L12.1314 16.2791C11.881 16.0913 11.881 15.7156 12.1314 15.4651C17.0151 11.3954 25.593 8.38999 31.228 8.20216C31.3533 8.20216 31.5411 8.20216 31.6663 8.20216C36.3622 8.20216 41.6842 10.2683 45.8792 14.0251C46.881 15.0269 46.6932 16.5921 45.5661 17.4061ZM53.017 53.9714C51.5143 54.2219 50.0742 53.1575 49.8864 51.5922C49.6359 50.0895 50.7003 48.6494 52.2656 48.4616C53.7683 48.2738 55.2084 49.2755 55.3962 50.8408C55.584 52.4061 54.5196 53.721 53.017 53.9714ZM73.0528 65.7425C70.7361 69.0609 63.5984 69.374 60.9687 66.3686C60.2799 65.5546 60.4052 65.0537 60.3426 56.5385C60.3426 51.5922 60.2799 49.9643 61.5322 48.399C61.7826 48.0859 63.3479 46.145 65.9776 46.0197C68.7325 45.8319 70.6735 47.7729 70.924 48.0859C72.3014 49.526 72.364 51.0913 72.8649 56.2881C73.5537 64.365 73.6789 64.8659 73.0528 65.7425ZM80.3157 52.594C78.813 52.7818 77.373 51.78 77.1851 50.2147C76.9973 48.712 77.9991 47.272 79.5644 47.0841C81.0671 46.8963 82.5072 47.8981 82.695 49.4634C82.9454 50.9661 81.881 52.4061 80.3157 52.594ZM129.278 31.3059C128.777 31.3686 128.026 31.5564 127.275 31.9321C125.709 32.8086 125.146 34.3113 125.021 34.687C122.579 42.0752 114.502 49.5886 103.858 49.5886C103.42 49.5886 102.981 49.5886 102.543 49.526C101.353 49.4634 100.352 48.4616 100.289 47.272C100.226 46.2076 100.101 45.0806 100.038 44.0162C98.5984 34.1861 98.9115 18.2827 85.0116 16.3417C83.822 16.1539 83.1959 14.839 83.8846 13.8998C86.9526 9.45439 91.3354 6.3238 95.593 5.13417C97.5966 4.63328 100.164 4.32022 102.793 4.32022C107.677 4.32022 112.436 5.19679 115.942 6.76208C116.255 6.88731 116.318 7.26298 116.192 7.51343L114.627 10.0179C114.502 10.2683 114.564 10.5814 114.815 10.7692L118.196 12.7728C123.393 15.8408 129.153 21.3507 129.717 30.805C129.717 31.0555 129.529 31.3059 129.278 31.3059Z" fill="white"/>
<path d="M129.654 30.805C129.654 31.0555 129.466 31.3059 129.216 31.3059C128.715 31.3685 127.963 31.5564 127.212 31.932C125.647 32.8086 125.083 34.3113 124.958 34.687C122.516 42.0752 114.439 49.5886 103.795 49.5886C103.357 49.5886 102.919 49.5886 102.48 49.526C101.291 49.4634 100.289 48.4616 100.226 47.2719C100.164 46.2075 100.038 45.0805 99.9759 44.0161C98.5358 34.1861 98.8488 18.2826 84.949 16.3417C83.7594 16.1538 83.1333 14.839 83.822 13.8998C86.89 9.45437 91.2728 6.32377 95.5304 5.13414C97.534 4.63325 100.101 4.32019 102.731 4.32019C107.615 4.32019 112.373 5.19676 115.879 6.76205C116.192 6.88728 116.255 7.26295 116.13 7.5134L114.564 10.0179C114.439 10.2683 114.502 10.5814 114.752 10.7692L118.133 12.7728C123.33 15.8408 129.153 21.3506 129.654 30.805Z" fill="#2D3166"/>
<path d="M80.3157 52.594C78.813 52.7818 77.373 51.78 77.1851 50.2147C76.9973 48.7121 77.9991 47.272 79.5644 47.0841C81.0671 46.8963 82.5071 47.8981 82.695 49.4634C82.9454 50.9661 81.881 52.4062 80.3157 52.594Z" fill="#292D62"/>
<path d="M73.0528 65.7425C70.7361 69.061 63.5984 69.374 60.9687 66.3687C60.2799 65.5547 60.4052 65.0538 60.3425 56.5386C60.3425 51.5923 60.2799 49.9643 61.5322 48.399C61.7826 48.086 63.3479 46.145 65.9776 46.0198C68.7325 45.832 70.6735 47.7729 70.9239 48.086C72.3014 49.5261 72.364 51.0914 72.8649 56.2881C73.5536 64.3651 73.6789 64.866 73.0528 65.7425Z" fill="#292D62"/>
<path d="M53.017 53.9714C51.5143 54.2219 50.0742 53.1575 49.8864 51.5922C49.6359 50.0895 50.7003 48.6494 52.2656 48.4616C53.7683 48.2738 55.2084 49.2755 55.3962 50.8408C55.5841 52.4061 54.5197 53.721 53.017 53.9714Z" fill="#292D62"/>
<path d="M45.5661 17.4061C44.6896 17.9696 43.8756 18.5957 43.0617 19.2218C32.042 26.3596 32.7933 40.5725 32.9812 48.0233C32.9812 48.8373 33.0438 49.6512 33.0438 50.4652C33.1064 52.4688 31.6037 54.0967 29.6001 54.0967H29.5375C22.2745 54.0967 15.1368 50.4652 11.2548 44.8927C11.067 44.5797 10.1904 43.3274 8.49992 42.8265C7.56074 42.5761 6.74678 42.6387 6.24589 42.7639C5.99544 42.8265 5.74499 42.6387 5.68238 42.3882C5.2441 40.4473 4.80581 37.6297 5.30671 34.3113C6.12066 29.0519 8.87559 24.8569 11.6931 21.8515L14.3854 19.034C14.5733 18.8462 14.5733 18.4705 14.3854 18.2827L12.1314 16.2791C11.881 16.0912 11.881 15.7156 12.1314 15.4651C17.0151 11.3954 25.593 8.38998 31.228 8.20215C31.3533 8.20215 31.5411 8.20215 31.6663 8.20215C36.3622 8.20215 41.6842 10.2683 45.8792 14.0251C46.881 15.0268 46.6932 16.5921 45.5661 17.4061Z" fill="#2D3166"/>
</svg>
