<svg width="33" height="58" viewBox="0 0 33 58" fill="none" xmlns="http://www.w3.org/2000/svg">
<path d="M17.8336 57.018C17.3223 57.018 16.8896 56.841 16.5356 56.487C16.1816 56.133 16.0046 55.7003 16.0046 55.189V51.531C13.7233 51.413 11.5599 51 9.51461 50.292C7.50861 49.584 5.75827 48.6203 4.26361 47.401C2.80827 46.1423 1.72661 44.6673 1.01861 42.976C0.664606 42.15 0.664606 41.4027 1.01861 40.734C1.41194 40.026 2.08061 39.5737 3.02461 39.377C3.69327 39.2197 4.34227 39.3377 4.97161 39.731C5.60094 40.085 6.07294 40.616 6.38761 41.324C6.97761 42.622 8.15761 43.7233 9.92761 44.628C11.6976 45.4933 13.7233 46.0047 16.0046 46.162V30.055C11.8353 29.4257 8.53127 27.9703 6.09261 25.689C3.69327 23.4077 2.49361 20.615 2.49361 17.311C2.49361 14.9903 3.08361 12.9843 4.26361 11.293C5.48294 9.56233 7.09561 8.20533 9.10161 7.222C11.1469 6.19933 13.4479 5.57 16.0046 5.334V2.502C16.0046 1.95133 16.1816 1.51866 16.5356 1.204C16.8896 0.849997 17.3223 0.672997 17.8336 0.672997C18.3843 0.672997 18.8169 0.849997 19.1316 1.204C19.4856 1.51866 19.6626 1.95133 19.6626 2.502V5.334C22.7306 5.57 25.2283 6.396 27.1556 7.812C29.0829 9.18866 30.6759 10.9587 31.9346 13.122C32.4459 13.9873 32.6623 14.7937 32.5836 15.541C32.5049 16.249 32.1313 16.8193 31.4626 17.252C30.7939 17.724 30.0663 17.842 29.2796 17.606C28.4929 17.3307 27.8833 16.8193 27.4506 16.072C26.6639 14.6167 25.6609 13.417 24.4416 12.473C23.2223 11.529 21.6293 10.9193 19.6626 10.644V25.453C23.7139 26.0037 26.9196 27.4 29.2796 29.642C31.6789 31.884 32.8786 34.834 32.8786 38.492C32.8786 41.1273 32.2493 43.3693 30.9906 45.218C29.7713 47.0273 28.1389 48.463 26.0936 49.525C24.0876 50.587 21.9439 51.236 19.6626 51.472V55.189C19.6626 55.7003 19.4856 56.133 19.1316 56.487C18.8169 56.841 18.3843 57.018 17.8336 57.018ZM8.33461 17.37C8.33461 18.3927 8.53127 19.3957 8.92461 20.379C9.35727 21.3623 10.1243 22.267 11.2256 23.093C12.3269 23.8797 13.9199 24.4893 16.0046 24.922V10.585C13.7626 10.821 11.9139 11.5093 10.4586 12.65C9.04261 13.7907 8.33461 15.364 8.33461 17.37ZM26.9786 38.669C26.9786 36.899 26.4083 35.2863 25.2676 33.831C24.1269 32.3363 22.2586 31.2743 19.6626 30.645V46.044C21.6686 45.69 23.3796 44.9033 24.7956 43.684C26.2509 42.4253 26.9786 40.7537 26.9786 38.669Z" fill="#FAB445"/>
</svg>
