<svg width="79" height="35" viewBox="0 0 79 35" fill="none" xmlns="http://www.w3.org/2000/svg">
<path d="M9.84228 35C9.25562 35 8.74228 34.78 8.30228 34.34C7.86228 33.9 7.64228 33.372 7.64228 32.756V5.916L4.43028 7.28C3.93161 7.48533 3.46228 7.588 3.02228 7.588C2.37695 7.588 1.83428 7.38267 1.39428 6.972C0.983615 6.56133 0.778281 6.03333 0.778281 5.388C0.778281 4.91867 0.895615 4.49333 1.13028 4.112C1.36495 3.73067 1.73161 3.452 2.23028 3.276L9.09428 0.812C9.24095 0.753332 9.38762 0.709332 9.53428 0.679999C9.68095 0.650666 9.81295 0.635999 9.93028 0.635999C10.6049 0.635999 11.1329 0.855999 11.5143 1.296C11.9249 1.70667 12.1303 2.24933 12.1303 2.924V32.756C12.1303 33.372 11.9103 33.9 11.4703 34.34C11.0303 34.78 10.4876 35 9.84228 35ZM29.2277 35C25.8837 35 23.2877 33.4893 21.4397 30.468C19.6211 27.4173 18.7117 23.1933 18.7117 17.796C18.7117 12.3693 19.6211 8.14533 21.4397 5.124C23.2877 2.10266 25.8837 0.591997 29.2277 0.591997C31.4571 0.591997 33.3491 1.296 34.9037 2.704C36.4877 4.08267 37.6904 6.06267 38.5117 8.644C39.3331 11.196 39.7437 14.2467 39.7437 17.796C39.7437 21.3453 39.3331 24.4107 38.5117 26.992C37.6904 29.544 36.4877 31.524 34.9037 32.932C33.3491 34.3107 31.4571 35 29.2277 35ZM29.2277 30.424C30.5771 30.424 31.6917 29.8813 32.5717 28.796C33.4517 27.6813 34.1117 26.1707 34.5517 24.264C34.9917 22.3573 35.2117 20.2013 35.2117 17.796C35.2117 15.3907 34.9917 13.2347 34.5517 11.328C34.1117 9.42133 33.4517 7.91066 32.5717 6.796C31.6917 5.68133 30.5771 5.124 29.2277 5.124C27.8784 5.124 26.7637 5.68133 25.8837 6.796C25.0037 7.88133 24.3437 9.37733 23.9037 11.284C23.4637 13.1907 23.2437 15.3613 23.2437 17.796C23.2437 20.2307 23.4637 22.4013 23.9037 24.308C24.3437 26.2147 25.0037 27.7107 25.8837 28.796C26.7931 29.8813 27.9077 30.424 29.2277 30.424ZM49.2972 35C48.6519 35 48.1092 34.78 47.6692 34.34C47.2586 33.9 47.0532 33.372 47.0532 32.756C47.0532 32.14 47.2292 31.6413 47.5812 31.26L70.7252 1.516C71.2532 0.929332 71.8546 0.635999 72.5292 0.635999C73.1746 0.635999 73.7172 0.855999 74.1572 1.296C74.5972 1.736 74.8172 2.264 74.8172 2.88C74.8172 3.37866 74.6559 3.83333 74.3332 4.244L50.9692 34.296C50.5292 34.7653 49.9719 35 49.2972 35ZM51.9372 18.192C50.3239 18.192 48.8426 17.796 47.4932 17.004C46.1732 16.1827 45.1172 15.112 44.3252 13.792C43.5332 12.472 43.1372 11.02 43.1372 9.436C43.1372 7.852 43.5332 6.4 44.3252 5.08C45.1172 3.73067 46.1732 2.66 47.4932 1.868C48.8426 1.04667 50.3239 0.635999 51.9372 0.635999C53.5506 0.635999 55.0172 1.04667 56.3372 1.868C57.6572 2.66 58.7132 3.73067 59.5052 5.08C60.2972 6.4 60.6932 7.852 60.6932 9.436C60.6932 11.02 60.2972 12.472 59.5052 13.792C58.7132 15.112 57.6572 16.1827 56.3372 17.004C55.0172 17.796 53.5506 18.192 51.9372 18.192ZM51.9372 13.704C53.1106 13.704 54.1079 13.2933 54.9292 12.472C55.7799 11.6213 56.2052 10.6093 56.2052 9.436C56.2052 8.26266 55.7799 7.25066 54.9292 6.4C54.0786 5.54933 53.0812 5.124 51.9372 5.124C50.7346 5.124 49.7079 5.54933 48.8572 6.4C48.0359 7.25066 47.6252 8.26266 47.6252 9.436C47.6252 10.6093 48.0359 11.6213 48.8572 12.472C49.7079 13.2933 50.7346 13.704 51.9372 13.704ZM69.8012 35C68.2172 35 66.7506 34.604 65.4012 33.812C64.0812 33.02 63.0252 31.964 62.2332 30.644C61.4412 29.2947 61.0452 27.828 61.0452 26.244C61.0452 24.6307 61.4412 23.164 62.2332 21.844C63.0252 20.524 64.0812 19.468 65.4012 18.676C66.7212 17.884 68.1879 17.488 69.8012 17.488C71.3852 17.488 72.8372 17.884 74.1572 18.676C75.5066 19.4387 76.5772 20.48 77.3692 21.8C78.1906 23.12 78.6012 24.6013 78.6012 26.244C78.6012 27.8573 78.1906 29.324 77.3692 30.644C76.5772 31.964 75.5212 33.02 74.2012 33.812C72.8812 34.604 71.4146 35 69.8012 35ZM69.8012 30.512C71.0039 30.512 72.0159 30.1013 72.8372 29.28C73.6879 28.4293 74.1132 27.4173 74.1132 26.244C74.1132 25.0707 73.6879 24.0733 72.8372 23.252C72.0159 22.4013 71.0039 21.976 69.8012 21.976C68.6279 21.976 67.6159 22.3867 66.7652 23.208C65.9439 24.0293 65.5332 25.0413 65.5332 26.244C65.5332 27.4173 65.9439 28.4293 66.7652 29.28C67.6159 30.1013 68.6279 30.512 69.8012 30.512Z" fill="#FAB445"/>
</svg>
