<svg width="86" height="35" viewBox="0 0 86 35" fill="none" xmlns="http://www.w3.org/2000/svg">
<path d="M2.54541 35C1.90007 35 1.35741 34.78 0.917406 34.34C0.50674 33.9 0.301406 33.372 0.301406 32.756C0.301406 32.1107 0.50674 31.5827 0.917406 31.172L13.4134 16.564C14.2934 15.5373 14.9681 14.5693 15.4374 13.66C15.9361 12.7507 16.1854 11.8853 16.1854 11.064C16.1854 9.15733 15.6867 7.632 14.6894 6.488C13.7214 5.344 12.3867 4.772 10.6854 4.772C9.57074 4.772 8.55874 5.06533 7.64941 5.652C6.76941 6.20933 6.06541 6.972 5.53741 7.94C5.03874 8.87867 4.78941 9.92 4.78941 11.064C4.78941 11.6507 4.56941 12.164 4.12941 12.604C3.71874 13.044 3.19074 13.264 2.54541 13.264C1.92941 13.264 1.40141 13.044 0.961406 12.604C0.521406 12.164 0.301406 11.6507 0.301406 11.064C0.301406 9.06933 0.756073 7.29466 1.66541 5.74C2.57474 4.156 3.80674 2.90933 5.36141 2C6.94541 1.09067 8.72007 0.635999 10.6854 0.635999C12.6801 0.635999 14.4107 1.06133 15.8774 1.912C17.3441 2.76266 18.4734 3.96533 19.2654 5.52C20.0867 7.07467 20.4974 8.92266 20.4974 11.064C20.4974 12.0027 20.2921 12.956 19.8814 13.924C19.5001 14.892 19.0014 15.816 18.3854 16.696C17.7987 17.576 17.1974 18.368 16.5814 19.072L6.50541 30.512H18.8254C19.4707 30.512 20.0134 30.7467 20.4534 31.216C20.8934 31.656 21.1134 32.1693 21.1134 32.756C21.1134 33.372 20.8934 33.9 20.4534 34.34C20.0134 34.78 19.4707 35 18.8254 35H2.54541ZM36.0246 35C32.6806 35 30.0846 33.4893 28.2366 30.468C26.4179 27.4173 25.5086 23.1933 25.5086 17.796C25.5086 12.3693 26.4179 8.14533 28.2366 5.124C30.0846 2.10266 32.6806 0.591997 36.0246 0.591997C38.2539 0.591997 40.1459 1.296 41.7006 2.704C43.2846 4.08267 44.4873 6.06267 45.3086 8.644C46.1299 11.196 46.5406 14.2467 46.5406 17.796C46.5406 21.3453 46.1299 24.4107 45.3086 26.992C44.4873 29.544 43.2846 31.524 41.7006 32.932C40.1459 34.3107 38.2539 35 36.0246 35ZM36.0246 30.424C37.3739 30.424 38.4886 29.8813 39.3686 28.796C40.2486 27.6813 40.9086 26.1707 41.3486 24.264C41.7886 22.3573 42.0086 20.2013 42.0086 17.796C42.0086 15.3907 41.7886 13.2347 41.3486 11.328C40.9086 9.42133 40.2486 7.91066 39.3686 6.796C38.4886 5.68133 37.3739 5.124 36.0246 5.124C34.6753 5.124 33.5606 5.68133 32.6806 6.796C31.8006 7.88133 31.1406 9.37733 30.7006 11.284C30.2606 13.1907 30.0406 15.3613 30.0406 17.796C30.0406 20.2307 30.2606 22.4013 30.7006 24.308C31.1406 26.2147 31.8006 27.7107 32.6806 28.796C33.5899 29.8813 34.7046 30.424 36.0246 30.424ZM56.0941 35C55.4488 35 54.9061 34.78 54.4661 34.34C54.0554 33.9 53.8501 33.372 53.8501 32.756C53.8501 32.14 54.0261 31.6413 54.3781 31.26L77.5221 1.516C78.0501 0.929332 78.6514 0.635999 79.3261 0.635999C79.9714 0.635999 80.5141 0.855999 80.9541 1.296C81.3941 1.736 81.6141 2.264 81.6141 2.88C81.6141 3.37866 81.4528 3.83333 81.1301 4.244L57.7661 34.296C57.3261 34.7653 56.7688 35 56.0941 35ZM58.7341 18.192C57.1208 18.192 55.6394 17.796 54.2901 17.004C52.9701 16.1827 51.9141 15.112 51.1221 13.792C50.3301 12.472 49.9341 11.02 49.9341 9.436C49.9341 7.852 50.3301 6.4 51.1221 5.08C51.9141 3.73067 52.9701 2.66 54.2901 1.868C55.6394 1.04667 57.1208 0.635999 58.7341 0.635999C60.3474 0.635999 61.8141 1.04667 63.1341 1.868C64.4541 2.66 65.5101 3.73067 66.3021 5.08C67.0941 6.4 67.4901 7.852 67.4901 9.436C67.4901 11.02 67.0941 12.472 66.3021 13.792C65.5101 15.112 64.4541 16.1827 63.1341 17.004C61.8141 17.796 60.3474 18.192 58.7341 18.192ZM58.7341 13.704C59.9074 13.704 60.9048 13.2933 61.7261 12.472C62.5768 11.6213 63.0021 10.6093 63.0021 9.436C63.0021 8.26266 62.5768 7.25066 61.7261 6.4C60.8754 5.54933 59.8781 5.124 58.7341 5.124C57.5314 5.124 56.5048 5.54933 55.6541 6.4C54.8328 7.25066 54.4221 8.26266 54.4221 9.436C54.4221 10.6093 54.8328 11.6213 55.6541 12.472C56.5048 13.2933 57.5314 13.704 58.7341 13.704ZM76.5981 35C75.0141 35 73.5474 34.604 72.1981 33.812C70.8781 33.02 69.8221 31.964 69.0301 30.644C68.2381 29.2947 67.8421 27.828 67.8421 26.244C67.8421 24.6307 68.2381 23.164 69.0301 21.844C69.8221 20.524 70.8781 19.468 72.1981 18.676C73.5181 17.884 74.9848 17.488 76.5981 17.488C78.1821 17.488 79.6341 17.884 80.9541 18.676C82.3034 19.4387 83.3741 20.48 84.1661 21.8C84.9874 23.12 85.3981 24.6013 85.3981 26.244C85.3981 27.8573 84.9874 29.324 84.1661 30.644C83.3741 31.964 82.3181 33.02 80.9981 33.812C79.6781 34.604 78.2114 35 76.5981 35ZM76.5981 30.512C77.8008 30.512 78.8128 30.1013 79.6341 29.28C80.4848 28.4293 80.9101 27.4173 80.9101 26.244C80.9101 25.0707 80.4848 24.0733 79.6341 23.252C78.8128 22.4013 77.8008 21.976 76.5981 21.976C75.4248 21.976 74.4128 22.3867 73.5621 23.208C72.7408 24.0293 72.3301 25.0413 72.3301 26.244C72.3301 27.4173 72.7408 28.4293 73.5621 29.28C74.4128 30.1013 75.4248 30.512 76.5981 30.512Z" fill="#FAB445"/>
</svg>
