<svg width="66" height="66" viewBox="0 0 66 66" fill="none" xmlns="http://www.w3.org/2000/svg">
<g id="24 / finance / bitcoin">
<path id="icon" fill-rule="evenodd" clip-rule="evenodd" d="M35.75 11.177C42.3878 12.0662 46.75 16.2847 46.75 23.375C46.75 26.9683 45.6296 29.824 43.6604 31.8826C47.3005 33.8311 49.5 37.4837 49.5 42.625C49.5 50.6063 44.1993 55 36.4375 55H35.75V60.5H30.25V55H24.75V60.5H19.25V55H13.75V49.5H19.25V16.5H13.75V11H19.25V5.5H24.75V11H30.25V5.5H35.75V11.177ZM33 16.5H24.75V30.25H33C38.3795 30.25 41.25 28.0193 41.25 23.375C41.25 18.7306 38.3795 16.5 33 16.5ZM24.75 35.75V49.5H36.4375C41.3659 49.5 44 47.3167 44 42.625C44 37.9334 41.3659 35.75 36.4375 35.75H24.75Z" fill="#FAB445"/>
</g>
</svg>
