<svg width="74" height="74" viewBox="0 0 74 74" fill="none" xmlns="http://www.w3.org/2000/svg">
<mask id="mask0" mask-type="alpha" maskUnits="userSpaceOnUse" x="0" y="0" width="74" height="74">
<circle cx="37" cy="37" r="37" fill="#C4C4C4"/>
</mask>
<g mask="url(#mask0)">
<circle cx="37" cy="37" r="37" fill="#C4C4C4"/>
<circle cx="37" cy="37" r="37" fill="#2D3166"/>
<path d="M62.8516 22.4618C62.731 22.4015 62.7009 22.2206 62.7612 22.1C63.4244 20.9846 63.5751 20.653 62.8516 20.1706C60.7111 18.6934 57.2744 18 54.1692 18C52.692 18 51.3052 18.1507 50.1596 18.4522C46.9338 19.2963 43.9794 21.8287 42.3515 25.1449C42.2912 25.2655 42.1404 25.3559 42.0198 25.3258C40.9345 25.175 39.8191 25.0243 38.7338 24.9037C38.0705 24.8133 37.3772 24.9339 36.5632 24.964C36.533 24.964 36.533 24.9339 36.533 24.9037C36.6838 24.5721 36.7742 24.4214 36.8647 24.2405C36.9551 24.0596 37.0154 23.8787 37.1058 23.6375C37.136 23.5772 37.0757 23.517 37.0154 23.4868C34.3624 23.1853 32.0109 23.6375 29.8102 24.6023C29.6595 24.6625 29.5087 24.6324 29.4183 24.5118C26.9462 21.6177 23.3285 19.8691 19.9219 19.8691C19.8314 19.8691 19.741 19.8691 19.6506 19.8691C15.9726 19.9596 10.3953 22.0699 7.92327 25.0846C7.38062 25.7478 7.6218 26.0493 8.55636 26.9236C8.64681 27.014 8.67695 27.1648 8.58651 27.2854C6.02399 30.0891 3.67251 34.6714 5.87326 40.6707C6.02399 41.0627 6.44606 41.2134 6.80782 41.0325C7.16959 40.8516 7.5615 40.731 7.92327 40.731C8.16445 40.731 8.37548 40.8516 8.52622 41.0627C10.7873 44.1377 14.7064 46.1877 18.927 46.1877C19.3792 46.1877 19.8616 46.1575 20.3439 46.0973C20.6756 46.0671 20.977 46.3083 21.0072 46.6399C21.0976 47.4237 21.2484 48.2076 21.4895 48.9311C22.4844 51.7951 24.8057 53.4833 27.4888 54.7194C31.3176 56.4679 35.3573 56.8297 39.4875 56.287C43.1654 55.8047 46.5721 54.5988 49.4662 52.187C51.8177 50.2274 53.3251 47.8156 53.2346 44.6502C53.2346 44.2884 53.5361 43.9869 53.928 44.0171C53.9582 44.0171 53.9582 44.0171 53.9883 44.0171C54.2295 44.0171 54.4707 44.0472 54.742 44.0472C60.3795 44.0472 65.2031 40.2788 66.8612 35.6964C66.9215 35.5156 67.0722 35.3347 67.2833 35.2744C67.4641 35.2141 67.7053 35.1839 67.9163 35.1839C68.0972 35.1839 68.3083 35.2141 68.5193 35.2442C68.9112 35.3347 69.3031 35.0332 69.3333 34.6413C69.6347 28.1898 66.0774 24.4515 62.8516 22.4618ZM26.6146 26.3809C26.1925 26.6523 25.8006 26.9537 25.4087 27.2552C20.1028 30.692 20.4645 37.5354 20.555 41.123C20.555 41.5149 20.5851 41.9068 20.5851 42.2987C20.6153 43.2634 19.8917 44.0472 18.927 44.0472H18.8969C15.3998 44.0472 11.963 42.2987 10.0939 39.6156C10.0034 39.4649 9.58137 38.8619 8.7674 38.6207C8.31519 38.5001 7.92327 38.5303 7.68209 38.5906C7.5615 38.6207 7.44092 38.5303 7.41077 38.4097C7.19974 37.4751 6.98871 36.1185 7.22988 34.5207C7.6218 31.9883 8.94828 29.9685 10.3049 28.5214L11.6012 27.1648C11.6917 27.0743 11.6917 26.8934 11.6012 26.803L10.5159 25.8383C10.3953 25.7478 10.3953 25.567 10.5159 25.4464C12.8674 23.4868 16.9976 22.0397 19.7109 21.9493C19.7711 21.9493 19.8616 21.9493 19.9219 21.9493C22.1829 21.9493 24.7454 22.9442 26.7653 24.753C27.2477 25.2353 27.1572 25.989 26.6146 26.3809ZM30.2021 43.9869C29.4786 44.1075 28.7852 43.595 28.6947 42.8414C28.5742 42.1178 29.0867 41.4244 29.8403 41.334C30.5639 41.2435 31.2573 41.7259 31.3477 42.4796C31.4381 43.2333 30.9256 43.8664 30.2021 43.9869ZM39.8492 49.6546C38.7338 51.2524 35.297 51.4032 34.0308 49.9561C33.6992 49.5642 33.7595 49.323 33.7293 45.223C33.7293 42.8414 33.6992 42.0575 34.3021 41.3038C34.4227 41.1531 35.1764 40.2185 36.4426 40.1582C37.7691 40.0678 38.7036 41.0024 38.8242 41.1531C39.4875 41.8465 39.5176 42.6002 39.7588 45.1024C40.0904 48.9914 40.1507 49.2326 39.8492 49.6546ZM43.3463 43.3237C42.6228 43.4141 41.9294 42.9318 41.839 42.1781C41.7485 41.4546 42.2309 40.7612 42.9846 40.6707C43.7081 40.5803 44.4015 41.0627 44.4919 41.8163C44.6125 42.5399 44.1 43.2333 43.3463 43.3237ZM66.9215 33.0736C66.6803 33.1038 66.3185 33.1942 65.9568 33.3751C65.2031 33.7972 64.9318 34.5207 64.8715 34.7016C63.6957 38.259 59.8067 41.8766 54.6817 41.8766C54.4707 41.8766 54.2596 41.8766 54.0486 41.8465C53.4758 41.8163 52.9934 41.334 52.9633 40.7612C52.9332 40.2487 52.8729 39.706 52.8427 39.1935C52.1493 34.4604 52.3001 26.803 45.6074 25.8684C45.0346 25.778 44.7331 25.1449 45.0647 24.6927C46.5419 22.5522 48.6522 21.0449 50.7023 20.4721C51.667 20.2309 52.903 20.0802 54.1692 20.0802C56.5207 20.0802 58.8119 20.5022 60.5001 21.2559C60.6509 21.3162 60.681 21.4971 60.6207 21.6177L59.867 22.8236C59.8067 22.9442 59.8369 23.0949 59.9575 23.1853L61.5854 24.15C64.0876 25.6273 66.8612 28.2802 67.1325 32.8325C67.1325 32.953 67.0421 33.0736 66.9215 33.0736Z" fill="white"/>
<path d="M67.1024 32.8324C67.1024 32.953 67.0119 33.0736 66.8913 33.0736C66.6502 33.1037 66.2884 33.1941 65.9266 33.375C65.1729 33.7971 64.9016 34.5206 64.8413 34.7015C63.6656 38.2589 59.7766 41.8766 54.6515 41.8766C54.4405 41.8766 54.2295 41.8766 54.0185 41.8464C53.4457 41.8163 52.9633 41.3339 52.9332 40.7611C52.903 40.2486 52.8427 39.706 52.8126 39.1935C52.1192 34.4603 52.2699 26.8029 45.5772 25.8684C45.0044 25.7779 44.7029 25.1448 45.0346 24.6926C46.5118 22.5522 48.6221 21.0448 50.6721 20.472C51.6368 20.2308 52.8729 20.0801 54.139 20.0801C56.4905 20.0801 58.7817 20.5021 60.47 21.2558C60.6207 21.3161 60.6509 21.497 60.5906 21.6176L59.8369 22.8235C59.7766 22.9441 59.8067 23.0948 59.9273 23.1852L61.5553 24.15C64.0575 25.6272 66.8612 28.2801 67.1024 32.8324Z" fill="#2D3166"/>
<path d="M43.3463 43.3235C42.6228 43.4139 41.9294 42.9316 41.8389 42.1779C41.7485 41.4544 42.2309 40.761 42.9845 40.6705C43.7081 40.5801 44.4015 41.0624 44.4919 41.8161C44.6125 42.5397 44.1 43.2331 43.3463 43.3235Z" fill="#2D3166"/>
<path d="M39.8492 49.6546C38.7338 51.2524 35.297 51.4032 34.0308 49.9561C33.6992 49.5642 33.7595 49.323 33.7293 45.223C33.7293 42.8414 33.6992 42.0575 34.3021 41.3038C34.4227 41.1531 35.1764 40.2185 36.4426 40.1582C37.7691 40.0678 38.7036 41.0024 38.8242 41.1531C39.4875 41.8465 39.5176 42.6002 39.7588 45.1024C40.0904 48.9914 40.1507 49.2326 39.8492 49.6546Z" fill="#2D3166"/>
<path d="M30.2021 43.9871C29.4786 44.1077 28.7852 43.5952 28.6948 42.8415C28.5742 42.1179 29.0867 41.4245 29.8403 41.3341C30.5639 41.2437 31.2573 41.726 31.3477 42.4797C31.4382 43.2334 30.9256 43.8665 30.2021 43.9871Z" fill="#2D3166"/>
<path d="M26.6146 26.3811C26.1925 26.6524 25.8006 26.9539 25.4087 27.2554C20.1028 30.6922 20.4645 37.5356 20.555 41.1231C20.555 41.515 20.5851 41.907 20.5851 42.2989C20.6153 43.2636 19.8917 44.0474 18.927 44.0474H18.8969C15.3998 44.0474 11.963 42.2989 10.0939 39.6158C10.0034 39.465 9.58136 38.8621 8.76739 38.6209C8.31518 38.5003 7.92326 38.5305 7.68208 38.5908C7.5615 38.6209 7.44091 38.5305 7.41076 38.4099C7.19973 37.4753 6.9887 36.1187 7.22988 34.5209C7.62179 31.9885 8.94827 29.9686 10.3049 28.5216L11.6012 27.1649C11.6917 27.0745 11.6917 26.8936 11.6012 26.8032L10.5159 25.8385C10.3953 25.748 10.3953 25.5671 10.5159 25.4465C12.8674 23.487 16.9976 22.0399 19.7108 21.9495C19.7711 21.9495 19.8616 21.9495 19.9219 21.9495C22.1829 21.9495 24.7454 22.9443 26.7653 24.7532C27.2477 25.2355 27.1572 25.9892 26.6146 26.3811Z" fill="#2D3166"/>
</g>
</svg>
