<svg width="139" height="67" viewBox="0 0 139 67" fill="none" xmlns="http://www.w3.org/2000/svg">
<path fill-rule="evenodd" clip-rule="evenodd" d="M35.75 11.177C42.3878 12.0662 46.75 16.2847 46.75 23.375C46.75 26.9683 45.6296 29.824 43.6604 31.8826C47.3005 33.8311 49.5 37.4837 49.5 42.625C49.5 50.6063 44.1993 55 36.4375 55H35.75V60.5H30.25V55H24.75V60.5H19.25V55H13.75V49.5H19.25V16.5H13.75V11H19.25V5.5H24.75V11H30.25V5.5H35.75V11.177ZM33 16.5H24.75V30.25H33C38.3795 30.25 41.25 28.0193 41.25 23.375C41.25 18.7306 38.3795 16.5 33 16.5ZM24.75 35.75V49.5H36.4375C41.3659 49.5 44 47.3167 44 42.625C44 37.9334 41.3659 35.75 36.4375 35.75H24.75Z" fill="#FAB445"/>
<path fill-rule="evenodd" clip-rule="evenodd" d="M80.75 9.25H131.25C134.011 9.25 136.25 11.7124 136.25 14.75V47.75C136.25 50.7876 134.011 53.25 131.25 53.25H80.75C77.9886 53.25 75.75 50.7876 75.75 47.75V14.75C75.75 11.7124 77.9886 9.25 80.75 9.25ZM81.25 14.75V47.75H130.75V14.75H81.25ZM86.75 36.75V42.25H92.25V36.75H86.75ZM95 42.25V36.75H103.25V42.25H95ZM119.75 36.75V42.25H125.25V36.75H119.75ZM111.5 42.25V36.75H117V42.25H111.5ZM95 23H86.75V31.25H95V23Z" fill="#FAB445"/>
</svg>
