<svg width="66" height="66" viewBox="0 0 66 66" fill="none" xmlns="http://www.w3.org/2000/svg">
<g id="24 / finance / creditcard-face">
<path id="icon" fill-rule="evenodd" clip-rule="evenodd" d="M7.75 8.25H58.25C61.0114 8.25 63.25 10.7124 63.25 13.75V46.75C63.25 49.7876 61.0114 52.25 58.25 52.25H7.75C4.98858 52.25 2.75 49.7876 2.75 46.75V13.75C2.75 10.7124 4.98858 8.25 7.75 8.25ZM8.25 13.75V46.75H57.75V13.75H8.25ZM13.75 35.75V41.25H19.25V35.75H13.75ZM22 41.25V35.75H30.25V41.25H22ZM46.75 35.75V41.25H52.25V35.75H46.75ZM38.5 41.25V35.75H44V41.25H38.5ZM22 22H13.75V30.25H22V22Z" fill="#FAB445"/>
</g>
</svg>
