<svg width="66" height="66" viewBox="0 0 66 66" fill="none" xmlns="http://www.w3.org/2000/svg">
<g id="24 / shopping / delivery">
<path id="icon" fill-rule="evenodd" clip-rule="evenodd" d="M45.0504 19.25L50.1169 29.383L57.75 34.4718V44H54.5306C53.398 40.7957 50.3421 38.5 46.75 38.5C43.1579 38.5 40.102 40.7957 38.9694 44H27.0306C25.898 40.7957 22.8421 38.5 19.25 38.5C15.6579 38.5 12.602 40.7957 11.4694 44H8.25V19.25H45.0504ZM57.75 49.5H54.5306C53.398 52.7043 50.3421 55 46.75 55C43.1579 55 40.102 52.7043 38.9694 49.5H27.0306C25.898 52.7043 22.8421 55 19.25 55C15.6579 55 12.602 52.7043 11.4694 49.5H8.25C5.21243 49.5 2.75 47.0376 2.75 44V19.25C2.75 16.2124 5.21243 13.75 8.25 13.75H45.0504C47.1336 13.75 49.0381 14.927 49.9698 16.7903L54.3831 25.617L63.25 31.5282V44C63.25 47.0376 60.7876 49.5 57.75 49.5ZM22 46.75C22 48.2688 20.7688 49.5 19.25 49.5C17.7312 49.5 16.5 48.2688 16.5 46.75C16.5 45.2312 17.7312 44 19.25 44C20.7688 44 22 45.2312 22 46.75ZM49.5 46.75C49.5 48.2688 48.2688 49.5 46.75 49.5C45.2312 49.5 44 48.2688 44 46.75C44 45.2312 45.2312 44 46.75 44C48.2688 44 49.5 45.2312 49.5 46.75Z" fill="#FAB445"/>
</g>
</svg>
