<svg width="21" height="21" viewBox="0 0 21 21" fill="none" xmlns="http://www.w3.org/2000/svg">
<rect width="21" height="21" fill="#E5E5E5"/>
<g clip-path="url(#clip0)">
<rect width="1920" height="1532" transform="translate(-363 -199)" fill="white"/>
<rect x="-363" y="-119" width="1920" height="1052" fill="#E9EDF5"/>
<path fill-rule="evenodd" clip-rule="evenodd" d="M6.125 6.125V8.75H5.25C4.31519 8.75 3.5 9.42933 3.5 10.3542V17.6458C3.5 18.5707 4.31519 19.25 5.25 19.25H15.75C16.6848 19.25 17.5 18.5707 17.5 17.6458V10.3542C17.5 9.42933 16.6848 8.75 15.75 8.75H14.875V6.125C14.875 3.70875 12.9162 1.75 10.5 1.75C8.08375 1.75 6.125 3.70875 6.125 6.125ZM13.125 6.125V8.75H7.875V6.125C7.875 4.67525 9.05025 3.5 10.5 3.5C11.9497 3.5 13.125 4.67525 13.125 6.125ZM5.25 17.5V10.5H15.75V17.5H5.25ZM11.375 14C11.375 14.4832 10.9832 14.875 10.5 14.875C10.0168 14.875 9.625 14.4832 9.625 14C9.625 13.5168 10.0168 13.125 10.5 13.125C10.9832 13.125 11.375 13.5168 11.375 14Z" fill="#FAB445"/>
</g>
<defs>
<clipPath id="clip0">
<rect width="1920" height="1532" fill="white" transform="translate(-363 -199)"/>
</clipPath>
</defs>
</svg>
