<svg width="417" height="54" viewBox="0 0 417 54" fill="none" xmlns="http://www.w3.org/2000/svg">
<g opacity="0.4">
<path d="M46.2802 43.7754H37.6677L43.0623 10.3193H51.7221L46.2802 43.7754Z" fill="#B1B2C3"/>
<path d="M77.6542 11.1237C75.9507 10.4612 73.2533 9.7041 69.8935 9.7041C61.3284 9.7041 55.3186 14.2469 55.2713 20.7773C55.2239 25.604 59.5775 28.254 62.8427 29.863C66.2025 31.5192 67.3382 32.5603 67.3382 34.0272C67.2909 36.2513 64.6409 37.2924 62.1328 37.2924C58.6784 37.2924 56.8329 36.7719 53.9936 35.4942L52.8579 34.9737L51.7222 42.4977C53.757 43.4442 57.4954 44.2486 61.3757 44.2959C70.4614 44.2959 76.3765 39.8004 76.4239 32.8442C76.4712 29.0112 74.1524 26.1246 69.1364 23.7112C66.1078 22.1969 64.2623 21.1558 64.2623 19.5942C64.3096 18.1746 65.8239 16.7076 69.231 16.7076C72.023 16.613 74.1051 17.3228 75.6667 17.9853L76.4712 18.3639L77.6542 11.1237Z" fill="#B1B2C3"/>
<path d="M89.1534 31.9451C89.8632 30.0049 92.6078 22.5755 92.6078 22.5755C92.5605 22.6701 93.3177 20.6353 93.7436 19.3576L94.3587 22.2442C94.3587 22.2442 96.015 30.2415 96.3462 31.9451C95.0212 31.9451 90.9043 31.9451 89.1534 31.9451ZM99.848 10.3193H93.1757C91.0936 10.3193 89.532 10.9345 88.6329 13.1112L75.7615 43.8227H84.8472C84.8472 43.8227 86.3614 39.7058 86.6454 38.8067C87.6391 38.8067 96.4882 38.8067 97.7659 38.8067C98.0025 39.9897 98.8069 43.8227 98.8069 43.8227H106.804L99.848 10.3193Z" fill="#B1B2C3"/>
<path d="M30.4275 10.3193L21.957 33.1281L21.0106 28.4906C19.449 23.1907 14.5276 17.3701 9.03833 14.4835L16.799 43.7281H25.932L39.5605 10.3193H30.4275Z" fill="#B1B2C3"/>
<path d="M14.0544 10.3193H0.141964L0 10.9818C10.8839 13.7737 18.0767 20.446 21.0106 28.4906L17.9821 13.1112C17.5089 10.9818 15.9473 10.3666 14.0544 10.3193Z" fill="#B1B2C3"/>
<path d="M46.2802 43.7754H37.6677L43.0623 10.3193H51.7221L46.2802 43.7754Z" fill="#B1B2C3"/>
<path d="M77.6542 11.1237C75.9507 10.4612 73.2533 9.7041 69.8935 9.7041C61.3284 9.7041 55.3186 14.2469 55.2713 20.7773C55.2239 25.604 59.5775 28.254 62.8427 29.863C66.2025 31.5192 67.3382 32.5603 67.3382 34.0272C67.2909 36.2513 64.6409 37.2924 62.1328 37.2924C58.6784 37.2924 56.8329 36.7719 53.9936 35.4942L52.8579 34.9737L51.7222 42.4977C53.757 43.4442 57.4954 44.2486 61.3757 44.2959C70.4614 44.2959 76.3765 39.8004 76.4239 32.8442C76.4712 29.0112 74.1524 26.1246 69.1364 23.7112C66.1078 22.1969 64.2623 21.1558 64.2623 19.5942C64.3096 18.1746 65.8239 16.7076 69.231 16.7076C72.023 16.613 74.1051 17.3228 75.6667 17.9853L76.4712 18.3639L77.6542 11.1237Z" fill="#B1B2C3"/>
<path d="M89.1534 31.9451C89.8632 30.0049 92.6078 22.5755 92.6078 22.5755C92.5605 22.6701 93.3177 20.6353 93.7436 19.3576L94.3587 22.2442C94.3587 22.2442 96.015 30.2415 96.3462 31.9451C95.0212 31.9451 90.9043 31.9451 89.1534 31.9451ZM99.848 10.3193H93.1757C91.0936 10.3193 89.532 10.9345 88.6329 13.1112L75.7615 43.8227H84.8472C84.8472 43.8227 86.3614 39.7058 86.6454 38.8067C87.6391 38.8067 96.4882 38.8067 97.7659 38.8067C98.0025 39.9897 98.8069 43.8227 98.8069 43.8227H106.804L99.848 10.3193Z" fill="#B1B2C3"/>
<path d="M30.4275 10.3193L21.957 33.1281L21.0106 28.4906C19.449 23.1907 14.5276 17.3701 9.03833 14.4835L16.799 43.7281H25.932L39.5605 10.3193H30.4275Z" fill="#B1B2C3"/>
<path d="M14.0544 10.3193H0.141964L0 10.9818C10.8839 13.7737 18.0767 20.446 21.0106 28.4906L17.9821 13.1112C17.5089 10.9818 15.9473 10.3666 14.0544 10.3193Z" fill="#B1B2C3"/>
<path d="M191.37 5.7757H167.716V48.2242H191.37V5.7757Z" fill="#9FA0B0"/>
<path d="M169.221 27C169.221 18.3757 173.28 10.7214 179.508 5.77573C174.924 2.17573 169.142 0 162.835 0C147.894 0 135.804 12.0757 135.804 27C135.804 41.9243 147.894 54 162.835 54C169.142 54 174.924 51.8243 179.508 48.2243C173.271 43.3485 169.221 35.6243 169.221 27Z" fill="#B1B2C3"/>
<path d="M223.282 27C223.282 41.9243 211.193 54 196.251 54C189.944 54 184.162 51.8243 179.578 48.2243C185.885 43.2786 189.866 35.6243 189.866 27C189.866 18.3757 185.815 10.7214 179.578 5.77573C184.162 2.17573 189.944 0 196.251 0C211.193 0 223.282 12.1544 223.282 27Z" fill="#B1B2C3"/>
<path d="M169.221 27C169.221 18.3757 173.28 10.7214 179.508 5.77573C174.924 2.17573 169.142 0 162.835 0C147.894 0 135.804 12.0757 135.804 27C135.804 41.9243 147.894 54 162.835 54C169.142 54 174.924 51.8243 179.508 48.2243C173.271 43.3485 169.221 35.6243 169.221 27Z" fill="#B1B2C3"/>
<path d="M223.282 27C223.282 41.9243 211.193 54 196.251 54C189.944 54 184.162 51.8243 179.578 48.2243C185.885 43.2786 189.866 35.6243 189.866 27C189.866 18.3757 185.815 10.7214 179.578 5.77573C184.162 2.17573 189.944 0 196.251 0C211.193 0 223.282 12.1544 223.282 27Z" fill="#B1B2C3"/>
<path d="M151.72 32.0227V27.5227C151.72 25.8013 150.67 24.6741 148.868 24.6741C147.967 24.6741 146.987 24.9712 146.314 25.9498C145.789 25.1285 145.036 24.6741 143.908 24.6741C143.156 24.6741 142.403 24.9013 141.808 25.7227V24.8227H140.234V32.0227H141.808V28.0469C141.808 26.7712 142.482 26.1683 143.532 26.1683C144.582 26.1683 145.106 26.8411 145.106 28.0469V32.0227H146.681V28.0469C146.681 26.7712 147.433 26.1683 148.404 26.1683C149.454 26.1683 149.979 26.8411 149.979 28.0469V32.0227H151.72ZM175.076 24.8227H172.522V22.6469H170.947V24.8227H169.521V26.2469H170.947V29.5498C170.947 31.2013 171.621 32.1712 173.423 32.1712C174.097 32.1712 174.849 31.944 175.374 31.6469L174.919 30.2926C174.464 30.5897 173.939 30.6683 173.563 30.6683C172.811 30.6683 172.513 30.2139 172.513 29.4712V26.2469H175.068V24.8227H175.076ZM188.443 24.6654C187.542 24.6654 186.938 25.1198 186.562 25.7139V24.8139H184.988V32.0139H186.562V27.9596C186.562 26.7625 187.087 26.0809 188.067 26.0809C188.364 26.0809 188.74 26.1596 189.047 26.2295L189.501 24.7265C189.195 24.6654 188.74 24.6654 188.443 24.6654ZM168.244 25.4168C167.492 24.8926 166.442 24.6654 165.314 24.6654C163.512 24.6654 162.313 25.5654 162.313 26.9897C162.313 28.1867 163.214 28.8683 164.789 29.0867L165.541 29.1654C166.364 29.3139 166.818 29.5411 166.818 29.9168C166.818 30.4411 166.215 30.8168 165.165 30.8168C164.115 30.8168 163.284 30.4411 162.759 30.0654L162.007 31.2625C162.829 31.8654 163.958 32.1625 165.086 32.1625C167.186 32.1625 168.393 31.1838 168.393 29.8382C168.393 28.5625 167.413 27.8897 165.917 27.6625L165.165 27.5838C164.492 27.5052 163.967 27.3566 163.967 26.911C163.967 26.3867 164.492 26.0897 165.323 26.0897C166.224 26.0897 167.125 26.4654 167.579 26.6926L168.244 25.4168ZM210.146 24.6654C209.245 24.6654 208.642 25.1198 208.265 25.7139V24.8139H206.691V32.0139H208.265V27.9596C208.265 26.7625 208.79 26.0809 209.77 26.0809C210.067 26.0809 210.444 26.1596 210.75 26.2295L211.205 24.7265C210.89 24.6654 210.444 24.6654 210.146 24.6654ZM190.018 28.4227C190.018 30.5984 191.522 32.1712 193.849 32.1712C194.899 32.1712 195.651 31.944 196.403 31.3498L195.651 30.0741C195.048 30.5285 194.453 30.7469 193.77 30.7469C192.493 30.7469 191.592 29.8469 191.592 28.4227C191.592 27.0683 192.493 26.1683 193.77 26.0984C194.444 26.0984 195.048 26.3256 195.651 26.7712L196.403 25.4955C195.651 24.8926 194.899 24.6741 193.849 24.6741C191.522 24.6654 190.018 26.2469 190.018 28.4227ZM204.583 28.4227V24.8227H203.008V25.7227C202.483 25.0499 201.731 24.6741 200.751 24.6741C198.722 24.6741 197.147 26.2469 197.147 28.4227C197.147 30.5984 198.722 32.1712 200.751 32.1712C201.801 32.1712 202.553 31.7955 203.008 31.1227V32.0227H204.583V28.4227ZM198.8 28.4227C198.8 27.1469 199.623 26.0984 200.979 26.0984C202.256 26.0984 203.157 27.077 203.157 28.4227C203.157 29.6984 202.256 30.7469 200.979 30.7469C199.631 30.6683 198.8 29.6984 198.8 28.4227ZM179.958 24.6654C177.858 24.6654 176.354 26.1683 176.354 28.4139C176.354 30.6596 177.858 32.1625 180.036 32.1625C181.086 32.1625 182.136 31.8654 182.967 31.1838L182.215 30.0566C181.611 30.511 180.859 30.8081 180.115 30.8081C179.135 30.8081 178.164 30.3537 177.937 29.0867H183.264C183.264 28.8596 183.264 28.711 183.264 28.4838C183.334 26.1683 181.987 24.6654 179.958 24.6654ZM179.958 26.0198C180.937 26.0198 181.611 26.6227 181.76 27.7411H178.007C178.156 26.7712 178.829 26.0198 179.958 26.0198ZM219.078 28.4227V21.9741H217.503V25.7227C216.978 25.0499 216.226 24.6741 215.246 24.6741C213.217 24.6741 211.642 26.2469 211.642 28.4227C211.642 30.5984 213.217 32.1712 215.246 32.1712C216.296 32.1712 217.048 31.7955 217.503 31.1227V32.0227H219.078V28.4227ZM213.295 28.4227C213.295 27.1469 214.118 26.0984 215.474 26.0984C216.751 26.0984 217.652 27.077 217.652 28.4227C217.652 29.6984 216.751 30.7469 215.474 30.7469C214.118 30.6683 213.295 29.6984 213.295 28.4227ZM160.581 28.4227V24.8227H159.007V25.7227C158.482 25.0499 157.729 24.6741 156.75 24.6741C154.72 24.6741 153.146 26.2469 153.146 28.4227C153.146 30.5984 154.72 32.1712 156.75 32.1712C157.799 32.1712 158.552 31.7955 159.007 31.1227V32.0227H160.581V28.4227ZM154.729 28.4227C154.729 27.1469 155.551 26.0984 156.907 26.0984C158.184 26.0984 159.085 27.077 159.085 28.4227C159.085 29.6984 158.184 30.7469 156.907 30.7469C155.551 30.6683 154.729 29.6984 154.729 28.4227Z" fill="#E9EDF5"/>
<path d="M302.467 20.2465C303.858 20.2465 305.034 20.5139 306.05 20.995C307.065 21.4762 307.921 22.1712 308.562 22.9732C309.204 23.8286 309.738 24.7909 310.059 25.9136C310.38 27.0364 310.54 28.266 310.54 29.5491C310.54 31.5273 310.166 33.452 309.418 35.2162C308.669 36.9805 307.653 38.531 306.424 39.8675C305.141 41.2041 303.644 42.2199 301.933 42.9684C300.222 43.7169 298.351 44.0911 296.319 44.0911C296.052 44.0911 295.624 44.0911 294.929 44.0911C294.234 44.0911 293.539 44.0377 292.684 43.8773C291.828 43.7703 290.973 43.61 290.011 43.3426C289.048 43.1288 288.193 42.808 287.337 42.3803L294.822 10.8905L301.505 9.87469L298.832 21.0485C299.42 20.7812 300.008 20.5673 300.543 20.4604C301.184 20.3 301.772 20.2465 302.467 20.2465ZM296.854 38.7448C297.87 38.7448 298.832 38.4775 299.687 37.9963C300.596 37.5152 301.345 36.8736 301.986 36.0182C302.628 35.2162 303.162 34.2539 303.537 33.2381C303.911 32.2223 304.125 31.0996 304.125 29.9769C304.125 28.5868 303.911 27.5175 303.43 26.7156C302.949 25.9136 302.093 25.5394 300.864 25.5394C300.436 25.5394 299.955 25.5929 299.26 25.7533C298.618 25.9137 298.03 26.181 297.495 26.6621L294.662 38.531C294.822 38.5844 294.983 38.5844 295.143 38.6379C295.25 38.6913 295.41 38.6913 295.571 38.6913C295.731 38.6913 295.892 38.6913 296.105 38.6913C296.319 38.6913 296.533 38.7448 296.854 38.7448Z" fill="#B1B2C3"/>
<path d="M317.491 43.5031H311.075L316.475 20.7277H322.944L317.491 43.5031ZM320.592 17.9477C319.683 17.9477 318.881 17.6804 318.186 17.1457C317.437 16.6111 317.117 15.8091 317.117 14.6864C317.117 14.0983 317.223 13.5102 317.491 12.9756C317.758 12.441 318.079 11.9598 318.453 11.5856C318.881 11.2113 319.309 10.8905 319.843 10.6767C320.378 10.4628 320.966 10.3559 321.554 10.3559C322.463 10.3559 323.265 10.6232 323.96 11.1578C324.655 11.6925 325.029 12.4944 325.029 13.6172C325.029 14.2052 324.922 14.7933 324.655 15.328C324.388 15.8626 324.067 16.3438 323.693 16.718C323.265 17.0923 322.837 17.413 322.302 17.6269C321.768 17.8407 321.18 17.9477 320.592 17.9477Z" fill="#B1B2C3"/>
<path d="M328.558 15.0607L335.294 14.0449L333.637 20.7812H340.801L339.518 26.0741H332.353L330.429 34.0401C330.268 34.6817 330.161 35.3232 330.108 35.9113C330.055 36.4994 330.161 36.9806 330.322 37.4083C330.482 37.836 330.803 38.1568 331.231 38.3706C331.658 38.5845 332.3 38.7449 333.155 38.7449C333.85 38.7449 334.545 38.6914 335.187 38.531C335.829 38.4241 336.47 38.2102 337.165 37.9964L337.646 42.915C336.791 43.2358 335.829 43.5031 334.813 43.7169C333.797 43.9308 332.621 44.0377 331.231 44.0377C329.253 44.0377 327.702 43.7169 326.579 43.1288C325.457 42.5407 324.708 41.7388 324.227 40.723C323.746 39.7072 323.586 38.531 323.639 37.1944C323.692 35.8578 323.906 34.4678 324.227 32.9708L328.558 15.0607Z" fill="#B1B2C3"/>
<path d="M340.533 34.4143C340.533 32.4362 340.854 30.6184 341.496 28.8541C342.137 27.1433 343.046 25.5929 344.222 24.3098C345.399 23.0267 346.842 22.0108 348.553 21.2624C350.21 20.5139 352.135 20.1396 354.22 20.1396C355.503 20.1396 356.679 20.2466 357.695 20.5139C358.711 20.7812 359.673 21.102 360.475 21.4762L358.283 26.5018C357.695 26.2879 357.107 26.0741 356.465 25.8602C355.824 25.6463 355.075 25.5929 354.167 25.5929C352.028 25.5929 350.317 26.3414 349.088 27.7849C347.858 29.2818 347.216 31.26 347.216 33.7193C347.216 35.2163 347.537 36.3924 348.179 37.3013C348.82 38.2102 349.996 38.6379 351.707 38.6379C352.563 38.6379 353.365 38.531 354.113 38.3706C354.915 38.2102 355.61 37.9963 356.198 37.729L356.679 42.8615C355.877 43.1823 354.968 43.4496 354.006 43.7169C353.044 43.9307 351.868 44.0911 350.478 44.0911C348.713 44.0911 347.163 43.8238 345.933 43.2892C344.704 42.7546 343.688 42.0595 342.886 41.2041C342.084 40.2953 341.496 39.2795 341.122 38.1033C340.694 36.9271 340.533 35.6974 340.533 34.4143Z" fill="#B1B2C3"/>
<path d="M368.976 44.0911C367.426 44.0911 366.142 43.8773 364.966 43.3961C363.843 42.915 362.935 42.2734 362.186 41.4715C361.438 40.616 360.903 39.6537 360.529 38.531C360.155 37.4083 359.994 36.1251 359.994 34.7351C359.994 33.0243 360.261 31.26 360.85 29.5492C361.384 27.8383 362.24 26.2344 363.362 24.8979C364.432 23.5078 365.822 22.3851 367.372 21.4762C368.976 20.6208 370.794 20.1396 372.825 20.1396C374.322 20.1396 375.659 20.3535 376.782 20.8347C377.904 21.3158 378.867 21.9574 379.615 22.7593C380.364 23.6148 380.898 24.5771 381.272 25.6998C381.647 26.8225 381.861 28.1057 381.861 29.4957C381.861 31.2065 381.593 32.9708 381.059 34.6816C380.524 36.3924 379.722 37.9429 378.653 39.3329C377.584 40.723 376.247 41.8457 374.643 42.7546C372.932 43.6634 371.114 44.0911 368.976 44.0911ZM372.184 25.5394C371.221 25.5394 370.419 25.8067 369.671 26.3414C368.922 26.876 368.334 27.571 367.853 28.4264C367.372 29.2819 366.998 30.1907 366.731 31.1531C366.463 32.1689 366.356 33.0777 366.356 33.9866C366.356 35.4301 366.57 36.5528 367.051 37.3548C367.532 38.1567 368.334 38.5844 369.564 38.5844C370.526 38.5844 371.328 38.3171 372.077 37.7825C372.772 37.2479 373.413 36.5528 373.895 35.6974C374.376 34.842 374.75 33.9331 375.017 32.9708C375.285 31.955 375.392 31.0461 375.392 30.1373C375.392 28.6937 375.178 27.571 374.697 26.7691C374.215 25.9671 373.413 25.5394 372.184 25.5394Z" fill="#B1B2C3"/>
<path d="M388.757 43.5031H382.342L387.741 20.7277H394.21L388.757 43.5031ZM391.911 17.9477C391.003 17.9477 390.201 17.6804 389.506 17.1457C388.811 16.6111 388.436 15.8091 388.436 14.6864C388.436 14.0983 388.543 13.5102 388.811 12.9756C389.078 12.441 389.399 11.9598 389.773 11.5856C390.201 11.2113 390.628 10.8905 391.163 10.6767C391.698 10.4628 392.286 10.3559 392.874 10.3559C393.783 10.3559 394.585 10.6232 395.28 11.1578C395.975 11.6925 396.349 12.4944 396.349 13.6172C396.349 14.2052 396.242 14.7933 395.975 15.328C395.707 15.8626 395.387 16.3438 395.012 16.718C394.585 17.0923 394.157 17.413 393.622 17.6269C393.088 17.8407 392.5 17.9477 391.911 17.9477Z" fill="#B1B2C3"/>
<path d="M398.862 21.7436C399.343 21.5832 399.878 21.4228 400.466 21.2624C401.054 21.102 401.695 20.8881 402.444 20.7277C403.192 20.5674 403.994 20.4604 404.903 20.3535C405.812 20.2466 406.828 20.1931 408.004 20.1931C411.372 20.1931 413.724 21.1555 415.008 23.1336C416.291 25.1117 416.505 27.7849 415.703 31.2065L412.762 43.5031H406.293L409.127 31.4738C409.287 30.7254 409.447 29.9769 409.554 29.2819C409.661 28.5868 409.661 27.9453 409.554 27.4106C409.447 26.876 409.18 26.4483 408.752 26.1275C408.325 25.8068 407.683 25.6464 406.828 25.6464C405.972 25.6464 405.117 25.7533 404.261 25.9137L400.038 43.5565H393.569L398.862 21.7436Z" fill="#B1B2C3"/>
<path d="M272.689 30.565C272.1 32.9173 268.198 31.6342 266.915 31.3134L267.93 27.1968C269.213 27.5176 273.277 28.1591 272.689 30.565Z" fill="#B1B2C3"/>
<path d="M273.277 24.5236C272.742 26.6621 269.481 25.5929 268.412 25.3256L269.374 21.5831C270.39 21.797 273.812 22.3316 273.277 24.5236Z" fill="#B1B2C3"/>
<path d="M273.544 10.4094C264.402 8.11052 255.099 13.7241 252.8 22.8663C250.501 32.0086 256.062 41.3112 265.257 43.6101C274.453 45.909 283.702 40.2953 286.001 31.1531C288.3 21.9575 282.74 12.6549 273.544 10.4094ZM276.966 24.5772C276.698 26.2345 275.79 27.0365 274.56 27.3038C276.271 28.1592 277.126 29.5493 276.271 31.8482C275.255 34.7352 272.849 35.0025 269.641 34.3609L268.839 37.4618L266.968 36.9806L267.717 33.9332C267.235 33.8263 266.754 33.6659 266.22 33.559L265.471 36.6599L263.6 36.1787L264.402 33.0778C263.974 32.9709 263.493 32.864 263.065 32.757L260.606 32.169L261.515 30.0304C261.515 30.0304 262.905 30.4047 262.851 30.3512C263.386 30.4581 263.6 30.1373 263.707 29.9235L264.937 25.0049C264.99 25.0049 265.097 25.0583 265.15 25.0583C265.097 25.0049 264.99 25.0049 264.937 25.0049L265.792 21.4763C265.845 21.1021 265.685 20.5674 264.937 20.4071L263.546 20.0863L264.028 18.0547L266.594 18.6962C266.968 18.8032 267.396 18.9101 267.77 18.9635L268.519 15.8627L270.39 16.3439L269.641 19.3912C270.122 19.4982 270.657 19.6051 271.138 19.7655L271.887 16.7716L273.758 17.2527L273.009 20.3536C275.576 21.0486 277.287 22.2783 276.966 24.5772Z" fill="#B1B2C3"/>
<path d="M302.467 20.2465C303.858 20.2465 305.034 20.5139 306.05 20.995C307.065 21.4762 307.921 22.1712 308.562 22.9732C309.204 23.8286 309.738 24.7909 310.059 25.9136C310.38 27.0364 310.54 28.266 310.54 29.5491C310.54 31.5273 310.166 33.452 309.418 35.2162C308.669 36.9805 307.653 38.531 306.424 39.8675C305.141 41.2041 303.644 42.2199 301.933 42.9684C300.222 43.7169 298.351 44.0911 296.319 44.0911C296.052 44.0911 295.624 44.0911 294.929 44.0911C294.234 44.0911 293.539 44.0377 292.684 43.8773C291.828 43.7703 290.973 43.61 290.011 43.3426C289.048 43.1288 288.193 42.808 287.337 42.3803L294.822 10.8905L301.505 9.87469L298.832 21.0485C299.42 20.7812 300.008 20.5673 300.543 20.4604C301.184 20.3 301.772 20.2465 302.467 20.2465ZM296.854 38.7448C297.87 38.7448 298.832 38.4775 299.687 37.9963C300.596 37.5152 301.345 36.8736 301.986 36.0182C302.628 35.2162 303.162 34.2539 303.537 33.2381C303.911 32.2223 304.125 31.0996 304.125 29.9769C304.125 28.5868 303.911 27.5175 303.43 26.7156C302.949 25.9136 302.093 25.5394 300.864 25.5394C300.436 25.5394 299.955 25.5929 299.26 25.7533C298.618 25.9137 298.03 26.181 297.495 26.6621L294.662 38.531C294.822 38.5844 294.983 38.5844 295.143 38.6379C295.25 38.6913 295.41 38.6913 295.571 38.6913C295.731 38.6913 295.892 38.6913 296.105 38.6913C296.319 38.6913 296.533 38.7448 296.854 38.7448Z" fill="#B1B2C3"/>
<path d="M317.491 43.5031H311.075L316.475 20.7277H322.944L317.491 43.5031ZM320.592 17.9477C319.683 17.9477 318.881 17.6804 318.186 17.1457C317.437 16.6111 317.117 15.8091 317.117 14.6864C317.117 14.0983 317.223 13.5102 317.491 12.9756C317.758 12.441 318.079 11.9598 318.453 11.5856C318.881 11.2113 319.309 10.8905 319.843 10.6767C320.378 10.4628 320.966 10.3559 321.554 10.3559C322.463 10.3559 323.265 10.6232 323.96 11.1578C324.655 11.6925 325.029 12.4944 325.029 13.6172C325.029 14.2052 324.922 14.7933 324.655 15.328C324.388 15.8626 324.067 16.3438 323.693 16.718C323.265 17.0923 322.837 17.413 322.302 17.6269C321.768 17.8407 321.18 17.9477 320.592 17.9477Z" fill="#B1B2C3"/>
<path d="M328.558 15.0607L335.294 14.0449L333.637 20.7812H340.801L339.518 26.0741H332.353L330.429 34.0401C330.268 34.6817 330.161 35.3232 330.108 35.9113C330.055 36.4994 330.161 36.9806 330.322 37.4083C330.482 37.836 330.803 38.1568 331.231 38.3706C331.658 38.5845 332.3 38.7449 333.155 38.7449C333.85 38.7449 334.545 38.6914 335.187 38.531C335.829 38.4241 336.47 38.2102 337.165 37.9964L337.646 42.915C336.791 43.2358 335.829 43.5031 334.813 43.7169C333.797 43.9308 332.621 44.0377 331.231 44.0377C329.253 44.0377 327.702 43.7169 326.579 43.1288C325.457 42.5407 324.708 41.7388 324.227 40.723C323.746 39.7072 323.586 38.531 323.639 37.1944C323.692 35.8578 323.906 34.4678 324.227 32.9708L328.558 15.0607Z" fill="#B1B2C3"/>
<path d="M340.533 34.4143C340.533 32.4362 340.854 30.6184 341.496 28.8541C342.137 27.1433 343.046 25.5929 344.222 24.3098C345.399 23.0267 346.842 22.0108 348.553 21.2624C350.21 20.5139 352.135 20.1396 354.22 20.1396C355.503 20.1396 356.679 20.2466 357.695 20.5139C358.711 20.7812 359.673 21.102 360.475 21.4762L358.283 26.5018C357.695 26.2879 357.107 26.0741 356.465 25.8602C355.824 25.6463 355.075 25.5929 354.167 25.5929C352.028 25.5929 350.317 26.3414 349.088 27.7849C347.858 29.2818 347.216 31.26 347.216 33.7193C347.216 35.2163 347.537 36.3924 348.179 37.3013C348.82 38.2102 349.996 38.6379 351.707 38.6379C352.563 38.6379 353.365 38.531 354.113 38.3706C354.915 38.2102 355.61 37.9963 356.198 37.729L356.679 42.8615C355.877 43.1823 354.968 43.4496 354.006 43.7169C353.044 43.9307 351.868 44.0911 350.478 44.0911C348.713 44.0911 347.163 43.8238 345.933 43.2892C344.704 42.7546 343.688 42.0595 342.886 41.2041C342.084 40.2953 341.496 39.2795 341.122 38.1033C340.694 36.9271 340.533 35.6974 340.533 34.4143Z" fill="#B1B2C3"/>
<path d="M368.976 44.0911C367.426 44.0911 366.142 43.8773 364.966 43.3961C363.843 42.915 362.935 42.2734 362.186 41.4715C361.438 40.616 360.903 39.6537 360.529 38.531C360.155 37.4083 359.994 36.1251 359.994 34.7351C359.994 33.0243 360.261 31.26 360.85 29.5492C361.384 27.8383 362.24 26.2344 363.362 24.8979C364.432 23.5078 365.822 22.3851 367.372 21.4762C368.976 20.6208 370.794 20.1396 372.825 20.1396C374.322 20.1396 375.659 20.3535 376.782 20.8347C377.904 21.3158 378.867 21.9574 379.615 22.7593C380.364 23.6148 380.898 24.5771 381.272 25.6998C381.647 26.8225 381.861 28.1057 381.861 29.4957C381.861 31.2065 381.593 32.9708 381.059 34.6816C380.524 36.3924 379.722 37.9429 378.653 39.3329C377.584 40.723 376.247 41.8457 374.643 42.7546C372.932 43.6634 371.114 44.0911 368.976 44.0911ZM372.184 25.5394C371.221 25.5394 370.419 25.8067 369.671 26.3414C368.922 26.876 368.334 27.571 367.853 28.4264C367.372 29.2819 366.998 30.1907 366.731 31.1531C366.463 32.1689 366.356 33.0777 366.356 33.9866C366.356 35.4301 366.57 36.5528 367.051 37.3548C367.532 38.1567 368.334 38.5844 369.564 38.5844C370.526 38.5844 371.328 38.3171 372.077 37.7825C372.772 37.2479 373.413 36.5528 373.895 35.6974C374.376 34.842 374.75 33.9331 375.017 32.9708C375.285 31.955 375.392 31.0461 375.392 30.1373C375.392 28.6937 375.178 27.571 374.697 26.7691C374.215 25.9671 373.413 25.5394 372.184 25.5394Z" fill="#B1B2C3"/>
<path d="M388.757 43.5031H382.342L387.741 20.7277H394.21L388.757 43.5031ZM391.911 17.9477C391.003 17.9477 390.201 17.6804 389.506 17.1457C388.811 16.6111 388.436 15.8091 388.436 14.6864C388.436 14.0983 388.543 13.5102 388.811 12.9756C389.078 12.441 389.399 11.9598 389.773 11.5856C390.201 11.2113 390.628 10.8905 391.163 10.6767C391.698 10.4628 392.286 10.3559 392.874 10.3559C393.783 10.3559 394.585 10.6232 395.28 11.1578C395.975 11.6925 396.349 12.4944 396.349 13.6172C396.349 14.2052 396.242 14.7933 395.975 15.328C395.707 15.8626 395.387 16.3438 395.012 16.718C394.585 17.0923 394.157 17.413 393.622 17.6269C393.088 17.8407 392.5 17.9477 391.911 17.9477Z" fill="#B1B2C3"/>
<path d="M398.862 21.7436C399.343 21.5832 399.878 21.4228 400.466 21.2624C401.054 21.102 401.695 20.8881 402.444 20.7277C403.192 20.5674 403.994 20.4604 404.903 20.3535C405.812 20.2466 406.828 20.1931 408.004 20.1931C411.372 20.1931 413.724 21.1555 415.008 23.1336C416.291 25.1117 416.505 27.7849 415.703 31.2065L412.762 43.5031H406.293L409.127 31.4738C409.287 30.7254 409.447 29.9769 409.554 29.2819C409.661 28.5868 409.661 27.9453 409.554 27.4106C409.447 26.876 409.18 26.4483 408.752 26.1275C408.325 25.8068 407.683 25.6464 406.828 25.6464C405.972 25.6464 405.117 25.7533 404.261 25.9137L400.038 43.5565H393.569L398.862 21.7436Z" fill="#B1B2C3"/>
<path d="M272.689 30.565C272.1 32.9173 268.198 31.6342 266.915 31.3134L267.93 27.1968C269.213 27.5176 273.277 28.1591 272.689 30.565Z" fill="#B1B2C3"/>
<path d="M273.277 24.5236C272.742 26.6621 269.481 25.5929 268.412 25.3256L269.374 21.5831C270.39 21.797 273.812 22.3316 273.277 24.5236Z" fill="#B1B2C3"/>
<path d="M273.544 10.4094C264.402 8.11052 255.099 13.7241 252.8 22.8663C250.501 32.0086 256.062 41.3112 265.257 43.6101C274.453 45.909 283.702 40.2953 286.001 31.1531C288.3 21.9575 282.74 12.6549 273.544 10.4094ZM276.966 24.5772C276.698 26.2345 275.79 27.0365 274.56 27.3038C276.271 28.1592 277.126 29.5493 276.271 31.8482C275.255 34.7352 272.849 35.0025 269.641 34.3609L268.839 37.4618L266.968 36.9806L267.717 33.9332C267.235 33.8263 266.754 33.6659 266.22 33.559L265.471 36.6599L263.6 36.1787L264.402 33.0778C263.974 32.9709 263.493 32.864 263.065 32.757L260.606 32.169L261.515 30.0304C261.515 30.0304 262.905 30.4047 262.851 30.3512C263.386 30.4581 263.6 30.1373 263.707 29.9235L264.937 25.0049C264.99 25.0049 265.097 25.0583 265.15 25.0583C265.097 25.0049 264.99 25.0049 264.937 25.0049L265.792 21.4763C265.845 21.1021 265.685 20.5674 264.937 20.4071L263.546 20.0863L264.028 18.0547L266.594 18.6962C266.968 18.8032 267.396 18.9101 267.77 18.9635L268.519 15.8627L270.39 16.3439L269.641 19.3912C270.122 19.4982 270.657 19.6051 271.138 19.7655L271.887 16.7716L273.758 17.2527L273.009 20.3536C275.576 21.0486 277.287 22.2783 276.966 24.5772Z" fill="#B1B2C3"/>
</g>
</svg>
