<svg width="128" height="34" viewBox="0 0 128 34" fill="none" xmlns="http://www.w3.org/2000/svg">
<g opacity="0.5">
<path d="M50.804 10.4C52.436 10.4 53.72 10.79 54.656 11.57C55.592 12.35 56.06 13.424 56.06 14.792C56.06 16.16 55.592 17.234 54.656 18.014C53.72 18.794 52.436 19.184 50.804 19.184H47.69V23H45.89V10.4H50.804ZM50.75 17.618C51.89 17.618 52.76 17.378 53.36 16.898C53.96 16.406 54.26 15.704 54.26 14.792C54.26 13.88 53.96 13.184 53.36 12.704C52.76 12.212 51.89 11.966 50.75 11.966H47.69V17.618H50.75ZM61.8386 13.37C63.1586 13.37 64.1666 13.694 64.8626 14.342C65.5706 14.99 65.9246 15.956 65.9246 17.24V23H64.2866V21.74C63.9986 22.184 63.5846 22.526 63.0446 22.766C62.5166 22.994 61.8866 23.108 61.1546 23.108C60.0866 23.108 59.2286 22.85 58.5806 22.334C57.9446 21.818 57.6266 21.14 57.6266 20.3C57.6266 19.46 57.9326 18.788 58.5446 18.284C59.1566 17.768 60.1286 17.51 61.4606 17.51H64.1966V17.168C64.1966 16.424 63.9806 15.854 63.5486 15.458C63.1166 15.062 62.4806 14.864 61.6406 14.864C61.0766 14.864 60.5246 14.96 59.9846 15.152C59.4446 15.332 58.9886 15.578 58.6166 15.89L57.8966 14.594C58.3886 14.198 58.9766 13.898 59.6606 13.694C60.3446 13.478 61.0706 13.37 61.8386 13.37ZM61.4426 21.776C62.1026 21.776 62.6726 21.632 63.1526 21.344C63.6326 21.044 63.9806 20.624 64.1966 20.084V18.752H61.5326C60.0686 18.752 59.3366 19.244 59.3366 20.228C59.3366 20.708 59.5226 21.086 59.8946 21.362C60.2666 21.638 60.7826 21.776 61.4426 21.776ZM77.3886 13.46L72.7626 23.954C72.3546 24.926 71.8746 25.61 71.3226 26.006C70.7826 26.402 70.1286 26.6 69.3606 26.6C68.8926 26.6 68.4366 26.522 67.9926 26.366C67.5606 26.222 67.2006 26.006 66.9126 25.718L67.6506 24.422C68.1426 24.89 68.7126 25.124 69.3606 25.124C69.7806 25.124 70.1286 25.01 70.4046 24.782C70.6926 24.566 70.9506 24.188 71.1786 23.648L71.4846 22.982L67.2726 13.46H69.0726L72.4026 21.092L75.6966 13.46H77.3886ZM90.9353 13.37C92.1353 13.37 93.0833 13.718 93.7793 14.414C94.4873 15.11 94.8413 16.142 94.8413 17.51V23H93.1133V17.708C93.1133 16.784 92.8973 16.088 92.4653 15.62C92.0453 15.152 91.4393 14.918 90.6473 14.918C89.7713 14.918 89.0753 15.194 88.5593 15.746C88.0433 16.286 87.7853 17.066 87.7853 18.086V23H86.0573V17.708C86.0573 16.784 85.8413 16.088 85.4093 15.62C84.9893 15.152 84.3833 14.918 83.5913 14.918C82.7153 14.918 82.0193 15.194 81.5033 15.746C80.9873 16.286 80.7293 17.066 80.7293 18.086V23H79.0013V13.46H80.6573V14.882C81.0053 14.39 81.4613 14.018 82.0253 13.766C82.5893 13.502 83.2313 13.37 83.9513 13.37C84.6953 13.37 85.3553 13.52 85.9313 13.82C86.5073 14.12 86.9513 14.558 87.2633 15.134C87.6233 14.582 88.1213 14.15 88.7573 13.838C89.4053 13.526 90.1313 13.37 90.9353 13.37ZM106.696 18.284C106.696 18.416 106.684 18.59 106.66 18.806H98.9195C99.0275 19.646 99.3935 20.324 100.018 20.84C100.654 21.344 101.44 21.596 102.376 21.596C103.516 21.596 104.434 21.212 105.13 20.444L106.084 21.56C105.652 22.064 105.112 22.448 104.464 22.712C103.828 22.976 103.114 23.108 102.322 23.108C101.314 23.108 100.42 22.904 99.6395 22.496C98.8595 22.076 98.2535 21.494 97.8215 20.75C97.4015 20.006 97.1915 19.166 97.1915 18.23C97.1915 17.306 97.3955 16.472 97.8035 15.728C98.2235 14.984 98.7935 14.408 99.5135 14C100.246 13.58 101.068 13.37 101.98 13.37C102.892 13.37 103.702 13.58 104.41 14C105.13 14.408 105.688 14.984 106.084 15.728C106.492 16.472 106.696 17.324 106.696 18.284ZM101.98 14.828C101.152 14.828 100.456 15.08 99.8915 15.584C99.3395 16.088 99.0155 16.748 98.9195 17.564H105.04C104.944 16.76 104.614 16.106 104.05 15.602C103.498 15.086 102.808 14.828 101.98 14.828ZM114.189 13.37C115.401 13.37 116.361 13.724 117.069 14.432C117.789 15.128 118.149 16.154 118.149 17.51V23H116.421V17.708C116.421 16.784 116.199 16.088 115.755 15.62C115.311 15.152 114.675 14.918 113.847 14.918C112.911 14.918 112.173 15.194 111.633 15.746C111.093 16.286 110.823 17.066 110.823 18.086V23H109.095V13.46H110.751V14.9C111.099 14.408 111.567 14.03 112.155 13.766C112.755 13.502 113.433 13.37 114.189 13.37ZM126.711 22.442C126.459 22.658 126.147 22.826 125.775 22.946C125.403 23.054 125.019 23.108 124.623 23.108C123.663 23.108 122.919 22.85 122.391 22.334C121.863 21.818 121.599 21.08 121.599 20.12V14.882H119.979V13.46H121.599V11.372H123.327V13.46H126.063V14.882H123.327V20.048C123.327 20.564 123.453 20.96 123.705 21.236C123.969 21.512 124.341 21.65 124.821 21.65C125.349 21.65 125.799 21.5 126.171 21.2L126.711 22.442Z" fill="#2D3166"/>
<circle cx="17" cy="17" r="16.5" stroke="#2D3166"/>
<path d="M21.052 21.434V23H11.998V21.776L17.128 16.826C17.752 16.226 18.172 15.71 18.388 15.278C18.604 14.834 18.712 14.39 18.712 13.946C18.712 13.286 18.478 12.776 18.01 12.416C17.554 12.044 16.894 11.858 16.03 11.858C14.638 11.858 13.564 12.314 12.808 13.226L11.584 12.164C12.076 11.564 12.718 11.096 13.51 10.76C14.314 10.424 15.208 10.256 16.192 10.256C17.512 10.256 18.562 10.574 19.342 11.21C20.122 11.834 20.512 12.686 20.512 13.766C20.512 14.438 20.368 15.074 20.08 15.674C19.792 16.274 19.246 16.958 18.442 17.726L14.59 21.434H21.052Z" fill="#2D3166"/>
</g>
</svg>
