<svg width="127" height="34" viewBox="0 0 127 34" fill="none" xmlns="http://www.w3.org/2000/svg">
<g opacity="0.5">
<path d="M49.562 23.144C48.614 23.144 47.696 23 46.808 22.712C45.932 22.412 45.242 22.028 44.738 21.56L45.404 20.156C45.884 20.588 46.496 20.942 47.24 21.218C47.996 21.482 48.77 21.614 49.562 21.614C50.606 21.614 51.386 21.44 51.902 21.092C52.418 20.732 52.676 20.258 52.676 19.67C52.676 19.238 52.532 18.89 52.244 18.626C51.968 18.35 51.62 18.14 51.2 17.996C50.792 17.852 50.21 17.69 49.454 17.51C48.506 17.282 47.738 17.054 47.15 16.826C46.574 16.598 46.076 16.25 45.656 15.782C45.248 15.302 45.044 14.66 45.044 13.856C45.044 13.184 45.218 12.578 45.566 12.038C45.926 11.498 46.466 11.066 47.186 10.742C47.906 10.418 48.8 10.256 49.868 10.256C50.612 10.256 51.344 10.352 52.064 10.544C52.784 10.736 53.402 11.012 53.918 11.372L53.324 12.812C52.796 12.476 52.232 12.224 51.632 12.056C51.032 11.876 50.444 11.786 49.868 11.786C48.848 11.786 48.08 11.972 47.564 12.344C47.06 12.716 46.808 13.196 46.808 13.784C46.808 14.216 46.952 14.57 47.24 14.846C47.528 15.11 47.882 15.32 48.302 15.476C48.734 15.62 49.316 15.776 50.048 15.944C50.996 16.172 51.758 16.4 52.334 16.628C52.91 16.856 53.402 17.204 53.81 17.672C54.23 18.14 54.44 18.77 54.44 19.562C54.44 20.222 54.26 20.828 53.9 21.38C53.54 21.92 52.994 22.352 52.262 22.676C51.53 22.988 50.63 23.144 49.562 23.144ZM61.9117 13.37C63.1237 13.37 64.0837 13.724 64.7917 14.432C65.5117 15.128 65.8717 16.154 65.8717 17.51V23H64.1437V17.708C64.1437 16.784 63.9217 16.088 63.4777 15.62C63.0337 15.152 62.3977 14.918 61.5697 14.918C60.6337 14.918 59.8957 15.194 59.3557 15.746C58.8157 16.286 58.5457 17.066 58.5457 18.086V23H56.8177V9.644H58.5457V14.81C58.9057 14.354 59.3737 14 59.9497 13.748C60.5377 13.496 61.1917 13.37 61.9117 13.37ZM69.0696 13.46H70.7976V23H69.0696V13.46ZM69.9336 11.624C69.5976 11.624 69.3156 11.516 69.0876 11.3C68.8716 11.084 68.7636 10.82 68.7636 10.508C68.7636 10.196 68.8716 9.932 69.0876 9.716C69.3156 9.488 69.5976 9.374 69.9336 9.374C70.2696 9.374 70.5456 9.482 70.7616 9.698C70.9896 9.902 71.1036 10.16 71.1036 10.472C71.1036 10.796 70.9896 11.072 70.7616 11.3C70.5456 11.516 70.2696 11.624 69.9336 11.624ZM79.155 13.37C80.079 13.37 80.907 13.574 81.639 13.982C82.371 14.39 82.941 14.96 83.349 15.692C83.769 16.424 83.979 17.27 83.979 18.23C83.979 19.19 83.769 20.042 83.349 20.786C82.941 21.518 82.371 22.088 81.639 22.496C80.907 22.904 80.079 23.108 79.155 23.108C78.471 23.108 77.841 22.976 77.265 22.712C76.701 22.448 76.221 22.064 75.825 21.56V26.492H74.097V13.46H75.753V14.972C76.137 14.444 76.623 14.048 77.211 13.784C77.799 13.508 78.447 13.37 79.155 13.37ZM79.011 21.596C79.623 21.596 80.169 21.458 80.649 21.182C81.141 20.894 81.525 20.498 81.801 19.994C82.089 19.478 82.233 18.89 82.233 18.23C82.233 17.57 82.089 16.988 81.801 16.484C81.525 15.968 81.141 15.572 80.649 15.296C80.169 15.02 79.623 14.882 79.011 14.882C78.411 14.882 77.865 15.026 77.373 15.314C76.893 15.59 76.509 15.98 76.221 16.484C75.945 16.988 75.807 17.57 75.807 18.23C75.807 18.89 75.945 19.478 76.221 19.994C76.497 20.498 76.881 20.894 77.373 21.182C77.865 21.458 78.411 21.596 79.011 21.596ZM91.4245 13.37C92.3485 13.37 93.1765 13.574 93.9085 13.982C94.6405 14.39 95.2105 14.96 95.6185 15.692C96.0385 16.424 96.2485 17.27 96.2485 18.23C96.2485 19.19 96.0385 20.042 95.6185 20.786C95.2105 21.518 94.6405 22.088 93.9085 22.496C93.1765 22.904 92.3485 23.108 91.4245 23.108C90.7405 23.108 90.1105 22.976 89.5345 22.712C88.9705 22.448 88.4905 22.064 88.0945 21.56V26.492H86.3665V13.46H88.0225V14.972C88.4065 14.444 88.8925 14.048 89.4805 13.784C90.0685 13.508 90.7165 13.37 91.4245 13.37ZM91.2805 21.596C91.8925 21.596 92.4385 21.458 92.9185 21.182C93.4105 20.894 93.7945 20.498 94.0705 19.994C94.3585 19.478 94.5025 18.89 94.5025 18.23C94.5025 17.57 94.3585 16.988 94.0705 16.484C93.7945 15.968 93.4105 15.572 92.9185 15.296C92.4385 15.02 91.8925 14.882 91.2805 14.882C90.6805 14.882 90.1345 15.026 89.6425 15.314C89.1625 15.59 88.7785 15.98 88.4905 16.484C88.2145 16.988 88.0765 17.57 88.0765 18.23C88.0765 18.89 88.2145 19.478 88.4905 19.994C88.7665 20.498 89.1505 20.894 89.6425 21.182C90.1345 21.458 90.6805 21.596 91.2805 21.596ZM98.636 13.46H100.364V23H98.636V13.46ZM99.5 11.624C99.164 11.624 98.882 11.516 98.654 11.3C98.438 11.084 98.33 10.82 98.33 10.508C98.33 10.196 98.438 9.932 98.654 9.716C98.882 9.488 99.164 9.374 99.5 9.374C99.836 9.374 100.112 9.482 100.328 9.698C100.556 9.902 100.67 10.16 100.67 10.472C100.67 10.796 100.556 11.072 100.328 11.3C100.112 11.516 99.836 11.624 99.5 11.624ZM108.757 13.37C109.969 13.37 110.929 13.724 111.637 14.432C112.357 15.128 112.717 16.154 112.717 17.51V23H110.989V17.708C110.989 16.784 110.767 16.088 110.323 15.62C109.879 15.152 109.243 14.918 108.415 14.918C107.479 14.918 106.741 15.194 106.201 15.746C105.661 16.286 105.391 17.066 105.391 18.086V23H103.663V13.46H105.319V14.9C105.667 14.408 106.135 14.03 106.723 13.766C107.323 13.502 108.001 13.37 108.757 13.37ZM125.094 13.46V21.704C125.094 23.372 124.68 24.602 123.852 25.394C123.024 26.198 121.788 26.6 120.144 26.6C119.244 26.6 118.386 26.474 117.57 26.222C116.754 25.982 116.094 25.634 115.59 25.178L116.418 23.846C116.862 24.23 117.408 24.53 118.056 24.746C118.716 24.974 119.394 25.088 120.09 25.088C121.206 25.088 122.028 24.824 122.556 24.296C123.096 23.768 123.366 22.964 123.366 21.884V21.128C122.958 21.62 122.454 21.992 121.854 22.244C121.266 22.484 120.624 22.604 119.928 22.604C119.016 22.604 118.188 22.412 117.444 22.028C116.712 21.632 116.136 21.086 115.716 20.39C115.296 19.682 115.086 18.878 115.086 17.978C115.086 17.078 115.296 16.28 115.716 15.584C116.136 14.876 116.712 14.33 117.444 13.946C118.188 13.562 119.016 13.37 119.928 13.37C120.648 13.37 121.314 13.502 121.926 13.766C122.55 14.03 123.06 14.42 123.456 14.936V13.46H125.094ZM120.126 21.092C120.75 21.092 121.308 20.96 121.8 20.696C122.304 20.432 122.694 20.066 122.97 19.598C123.258 19.118 123.402 18.578 123.402 17.978C123.402 17.054 123.096 16.31 122.484 15.746C121.872 15.17 121.086 14.882 120.126 14.882C119.154 14.882 118.362 15.17 117.75 15.746C117.138 16.31 116.832 17.054 116.832 17.978C116.832 18.578 116.97 19.118 117.246 19.598C117.534 20.066 117.924 20.432 118.416 20.696C118.92 20.96 119.49 21.092 120.126 21.092Z" fill="#2D3166"/>
<circle cx="17" cy="17" r="16.5" stroke="#2D3166"/>
<path d="M17.9389 10.4V23H16.1569V11.966H13.3129V10.4H17.9389Z" fill="#2D3166"/>
</g>
</svg>
