<svg width="167" height="34" viewBox="0 0 167 34" fill="none" xmlns="http://www.w3.org/2000/svg">
<g opacity="0.5">
<path d="M51.524 23.144C50.264 23.144 49.124 22.868 48.104 22.316C47.096 21.752 46.304 20.984 45.728 20.012C45.152 19.028 44.864 17.924 44.864 16.7C44.864 15.476 45.152 14.378 45.728 13.406C46.304 12.422 47.102 11.654 48.122 11.102C49.142 10.538 50.282 10.256 51.542 10.256C52.526 10.256 53.426 10.424 54.242 10.76C55.058 11.084 55.754 11.57 56.33 12.218L55.16 13.352C54.212 12.356 53.03 11.858 51.614 11.858C50.678 11.858 49.832 12.068 49.076 12.488C48.32 12.908 47.726 13.49 47.294 14.234C46.874 14.966 46.664 15.788 46.664 16.7C46.664 17.612 46.874 18.44 47.294 19.184C47.726 19.916 48.32 20.492 49.076 20.912C49.832 21.332 50.678 21.542 51.614 21.542C53.018 21.542 54.2 21.038 55.16 20.03L56.33 21.164C55.754 21.812 55.052 22.304 54.224 22.64C53.408 22.976 52.508 23.144 51.524 23.144ZM62.3275 23.108C61.3795 23.108 60.5275 22.898 59.7715 22.478C59.0155 22.058 58.4215 21.482 57.9895 20.75C57.5695 20.006 57.3595 19.166 57.3595 18.23C57.3595 17.294 57.5695 16.46 57.9895 15.728C58.4215 14.984 59.0155 14.408 59.7715 14C60.5275 13.58 61.3795 13.37 62.3275 13.37C63.2755 13.37 64.1215 13.58 64.8655 14C65.6215 14.408 66.2095 14.984 66.6295 15.728C67.0615 16.46 67.2775 17.294 67.2775 18.23C67.2775 19.166 67.0615 20.006 66.6295 20.75C66.2095 21.482 65.6215 22.058 64.8655 22.478C64.1215 22.898 63.2755 23.108 62.3275 23.108ZM62.3275 21.596C62.9395 21.596 63.4855 21.458 63.9655 21.182C64.4575 20.894 64.8415 20.498 65.1175 19.994C65.3935 19.478 65.5315 18.89 65.5315 18.23C65.5315 17.57 65.3935 16.988 65.1175 16.484C64.8415 15.968 64.4575 15.572 63.9655 15.296C63.4855 15.02 62.9395 14.882 62.3275 14.882C61.7155 14.882 61.1635 15.02 60.6715 15.296C60.1915 15.572 59.8075 15.968 59.5195 16.484C59.2435 16.988 59.1055 17.57 59.1055 18.23C59.1055 18.89 59.2435 19.478 59.5195 19.994C59.8075 20.498 60.1915 20.894 60.6715 21.182C61.1635 21.458 61.7155 21.596 62.3275 21.596ZM74.7613 13.37C75.9733 13.37 76.9333 13.724 77.6413 14.432C78.3613 15.128 78.7213 16.154 78.7213 17.51V23H76.9933V17.708C76.9933 16.784 76.7713 16.088 76.3273 15.62C75.8833 15.152 75.2473 14.918 74.4193 14.918C73.4833 14.918 72.7453 15.194 72.2053 15.746C71.6653 16.286 71.3953 17.066 71.3953 18.086V23H69.6673V13.46H71.3233V14.9C71.6713 14.408 72.1393 14.03 72.7273 13.766C73.3273 13.502 74.0053 13.37 74.7613 13.37ZM85.4113 10.958C84.3793 10.958 83.8633 11.516 83.8633 12.632V13.46H86.6353V14.882H83.8993V23H82.1713V14.882H80.5513V13.46H82.1713V12.614C82.1713 11.666 82.4473 10.916 82.9993 10.364C83.5513 9.812 84.3253 9.536 85.3213 9.536C85.7053 9.536 86.0653 9.584 86.4013 9.68C86.7373 9.776 87.0253 9.914 87.2653 10.094L86.7433 11.408C86.3473 11.108 85.9033 10.958 85.4113 10.958ZM89.7133 13.46H91.4413V23H89.7133V13.46ZM90.5773 11.624C90.2413 11.624 89.9593 11.516 89.7313 11.3C89.5153 11.084 89.4073 10.82 89.4073 10.508C89.4073 10.196 89.5153 9.932 89.7313 9.716C89.9593 9.488 90.2413 9.374 90.5773 9.374C90.9133 9.374 91.1893 9.482 91.4053 9.698C91.6333 9.902 91.7473 10.16 91.7473 10.472C91.7473 10.796 91.6333 11.072 91.4053 11.3C91.1893 11.516 90.9133 11.624 90.5773 11.624ZM96.3897 15.062C96.6897 14.51 97.1337 14.09 97.7217 13.802C98.3097 13.514 99.0237 13.37 99.8637 13.37V15.044C99.7677 15.032 99.6357 15.026 99.4677 15.026C98.5317 15.026 97.7937 15.308 97.2537 15.872C96.7257 16.424 96.4617 17.216 96.4617 18.248V23H94.7337V13.46H96.3897V15.062ZM113.927 13.37C115.127 13.37 116.075 13.718 116.771 14.414C117.479 15.11 117.833 16.142 117.833 17.51V23H116.105V17.708C116.105 16.784 115.889 16.088 115.457 15.62C115.037 15.152 114.431 14.918 113.639 14.918C112.763 14.918 112.067 15.194 111.551 15.746C111.035 16.286 110.777 17.066 110.777 18.086V23H109.049V17.708C109.049 16.784 108.833 16.088 108.401 15.62C107.981 15.152 107.375 14.918 106.583 14.918C105.707 14.918 105.011 15.194 104.495 15.746C103.979 16.286 103.721 17.066 103.721 18.086V23H101.993V13.46H103.649V14.882C103.997 14.39 104.453 14.018 105.017 13.766C105.581 13.502 106.223 13.37 106.943 13.37C107.687 13.37 108.347 13.52 108.923 13.82C109.499 14.12 109.943 14.558 110.255 15.134C110.615 14.582 111.113 14.15 111.749 13.838C112.397 13.526 113.123 13.37 113.927 13.37ZM124.487 13.37C125.807 13.37 126.815 13.694 127.511 14.342C128.219 14.99 128.573 15.956 128.573 17.24V23H126.935V21.74C126.647 22.184 126.233 22.526 125.693 22.766C125.165 22.994 124.535 23.108 123.803 23.108C122.735 23.108 121.877 22.85 121.229 22.334C120.593 21.818 120.275 21.14 120.275 20.3C120.275 19.46 120.581 18.788 121.193 18.284C121.805 17.768 122.777 17.51 124.109 17.51H126.845V17.168C126.845 16.424 126.629 15.854 126.197 15.458C125.765 15.062 125.129 14.864 124.289 14.864C123.725 14.864 123.173 14.96 122.633 15.152C122.093 15.332 121.637 15.578 121.265 15.89L120.545 14.594C121.037 14.198 121.625 13.898 122.309 13.694C122.993 13.478 123.719 13.37 124.487 13.37ZM124.091 21.776C124.751 21.776 125.321 21.632 125.801 21.344C126.281 21.044 126.629 20.624 126.845 20.084V18.752H124.181C122.717 18.752 121.985 19.244 121.985 20.228C121.985 20.708 122.171 21.086 122.543 21.362C122.915 21.638 123.431 21.776 124.091 21.776ZM137.135 22.442C136.883 22.658 136.571 22.826 136.199 22.946C135.827 23.054 135.443 23.108 135.047 23.108C134.087 23.108 133.343 22.85 132.815 22.334C132.287 21.818 132.023 21.08 132.023 20.12V14.882H130.403V13.46H132.023V11.372H133.751V13.46H136.487V14.882H133.751V20.048C133.751 20.564 133.877 20.96 134.129 21.236C134.393 21.512 134.765 21.65 135.245 21.65C135.773 21.65 136.223 21.5 136.595 21.2L137.135 22.442ZM139.224 13.46H140.952V23H139.224V13.46ZM140.088 11.624C139.752 11.624 139.47 11.516 139.242 11.3C139.026 11.084 138.918 10.82 138.918 10.508C138.918 10.196 139.026 9.932 139.242 9.716C139.47 9.488 139.752 9.374 140.088 9.374C140.424 9.374 140.7 9.482 140.916 9.698C141.144 9.902 141.258 10.16 141.258 10.472C141.258 10.796 141.144 11.072 140.916 11.3C140.7 11.516 140.424 11.624 140.088 11.624ZM148.337 23.108C147.389 23.108 146.537 22.898 145.781 22.478C145.025 22.058 144.431 21.482 143.999 20.75C143.579 20.006 143.369 19.166 143.369 18.23C143.369 17.294 143.579 16.46 143.999 15.728C144.431 14.984 145.025 14.408 145.781 14C146.537 13.58 147.389 13.37 148.337 13.37C149.285 13.37 150.131 13.58 150.875 14C151.631 14.408 152.219 14.984 152.639 15.728C153.071 16.46 153.287 17.294 153.287 18.23C153.287 19.166 153.071 20.006 152.639 20.75C152.219 21.482 151.631 22.058 150.875 22.478C150.131 22.898 149.285 23.108 148.337 23.108ZM148.337 21.596C148.949 21.596 149.495 21.458 149.975 21.182C150.467 20.894 150.851 20.498 151.127 19.994C151.403 19.478 151.541 18.89 151.541 18.23C151.541 17.57 151.403 16.988 151.127 16.484C150.851 15.968 150.467 15.572 149.975 15.296C149.495 15.02 148.949 14.882 148.337 14.882C147.725 14.882 147.173 15.02 146.681 15.296C146.201 15.572 145.817 15.968 145.529 16.484C145.253 16.988 145.115 17.57 145.115 18.23C145.115 18.89 145.253 19.478 145.529 19.994C145.817 20.498 146.201 20.894 146.681 21.182C147.173 21.458 147.725 21.596 148.337 21.596ZM160.771 13.37C161.983 13.37 162.943 13.724 163.651 14.432C164.371 15.128 164.731 16.154 164.731 17.51V23H163.003V17.708C163.003 16.784 162.781 16.088 162.337 15.62C161.893 15.152 161.257 14.918 160.429 14.918C159.493 14.918 158.755 15.194 158.215 15.746C157.675 16.286 157.405 17.066 157.405 18.086V23H155.677V13.46H157.333V14.9C157.681 14.408 158.149 14.03 158.737 13.766C159.337 13.502 160.015 13.37 160.771 13.37Z" fill="#2D3166"/>
<circle cx="17" cy="17" r="16.5" stroke="#2D3166"/>
<path d="M17.0376 15.692C18.2736 15.812 19.2156 16.196 19.8636 16.844C20.5116 17.48 20.8356 18.296 20.8356 19.292C20.8356 20.012 20.6556 20.666 20.2956 21.254C19.9356 21.83 19.3956 22.292 18.6756 22.64C17.9676 22.976 17.0976 23.144 16.0656 23.144C15.1656 23.144 14.3016 23.012 13.4736 22.748C12.6456 22.472 11.9676 22.094 11.4396 21.614L12.2676 20.192C12.6996 20.6 13.2516 20.93 13.9236 21.182C14.5956 21.422 15.3096 21.542 16.0656 21.542C17.0016 21.542 17.7276 21.344 18.2436 20.948C18.7716 20.552 19.0356 20.006 19.0356 19.31C19.0356 18.614 18.7776 18.074 18.2616 17.69C17.7456 17.306 16.9656 17.114 15.9216 17.114H14.9136V15.854L18.0816 11.966H12.0156V10.4H20.3316V11.624L17.0376 15.692Z" fill="#2D3166"/>
</g>
</svg>
