<svg xmlns="http://www.w3.org/2000/svg" viewBox="0 0 344.8 202.83"><defs><style>.cls-1{fill:#fff;}.cls-2{fill:#fab445;}.cls-3{fill:#2d3166;}</style></defs><g id="Layer_2" data-name="Layer 2"><g id="Layer_1-2" data-name="Layer 1"><path class="cls-1" d="M2.66,202.39a2.83,2.83,0,0,1-2-.7,2.8,2.8,0,0,1-.7-2V150.38a2.52,2.52,0,0,1,.7-1.89,2.63,2.63,0,0,1,2-.77,2.42,2.42,0,0,1,1.89.77,2.42,2.42,0,0,1,.77,1.89v31.85l19.74-17.85a2.17,2.17,0,0,1,3.43.14,2.37,2.37,0,0,1,.7,1.82,2.07,2.07,0,0,1-.84,1.61l-14,12.67,14.56,17.92a2.23,2.23,0,0,1-.35,3.5,2.38,2.38,0,0,1-1.89.63,2.33,2.33,0,0,1-1.68-1L10.57,184l-5.25,4.83v10.92a2.68,2.68,0,0,1-.77,2A2.59,2.59,0,0,1,2.66,202.39Z"/><path class="cls-1" d="M53.44,202.74a18.66,18.66,0,0,1-9.66-2.52,19.24,19.24,0,0,1-6.79-7,20.17,20.17,0,0,1-2.45-9.94,19.8,19.8,0,0,1,2.52-10,18.84,18.84,0,0,1,7-6.93A19.24,19.24,0,0,1,54,163.75a18.84,18.84,0,0,1,9.87,2.59,18.3,18.3,0,0,1,6.93,6.93,19.78,19.78,0,0,1,2.66,10v16.45a2.64,2.64,0,0,1-.77,2,2.82,2.82,0,0,1-2,.7,2.85,2.85,0,0,1-2-.7,2.68,2.68,0,0,1-.77-2v-4.27a17,17,0,0,1-6.16,5.32A18.05,18.05,0,0,1,53.44,202.74Zm.56-4.9A13.73,13.73,0,0,0,61.21,196a13.42,13.42,0,0,0,5-5.18,15,15,0,0,0,1.89-7.49,14.76,14.76,0,0,0-1.89-7.49A13.94,13.94,0,0,0,54,168.65a13.57,13.57,0,0,0-7.21,2,14,14,0,0,0-5.11,5.18,14.76,14.76,0,0,0-1.89,7.49,15,15,0,0,0,1.89,7.49A13.91,13.91,0,0,0,54,197.84Z"/><path class="cls-1" d="M95.59,202.39a2.7,2.7,0,0,1-2.52-1.82l-15.54-33a2.27,2.27,0,0,1-.07-1.82,2.53,2.53,0,0,1,1.4-1.4,2.22,2.22,0,0,1,1.89-.14,2.6,2.6,0,0,1,1.4,1.26l13.44,29.12,13.3-29.12a2.07,2.07,0,0,1,1.4-1.26,2.73,2.73,0,0,1,2,.07,2.53,2.53,0,0,1,1.33,1.47,2.1,2.1,0,0,1-.07,1.75l-15.33,33A2.79,2.79,0,0,1,95.59,202.39Z"/><path class="cls-1" d="M136,202.74a18.66,18.66,0,0,1-9.66-2.52,19.16,19.16,0,0,1-6.79-7,20.17,20.17,0,0,1-2.45-9.94,19.8,19.8,0,0,1,2.52-10,18.84,18.84,0,0,1,7-6.93,19.22,19.22,0,0,1,9.94-2.59,18.84,18.84,0,0,1,9.87,2.59,18.3,18.3,0,0,1,6.93,6.93,19.88,19.88,0,0,1,2.66,10v16.45a2.68,2.68,0,0,1-.77,2,3.09,3.09,0,0,1-3.92,0,2.68,2.68,0,0,1-.77-2v-4.27a17.08,17.08,0,0,1-6.16,5.32A18.05,18.05,0,0,1,136,202.74Zm.56-4.9a13.73,13.73,0,0,0,7.21-1.89,13.42,13.42,0,0,0,5-5.18,15,15,0,0,0,1.89-7.49,14.76,14.76,0,0,0-1.89-7.49,13.94,13.94,0,0,0-12.25-7.14,13.57,13.57,0,0,0-7.21,2,13.88,13.88,0,0,0-5.11,5.18,14.76,14.76,0,0,0-1.89,7.49,15,15,0,0,0,1.89,7.49,13.91,13.91,0,0,0,12.32,7.07Z"/><path class="cls-2" d="M170,202.39a3.15,3.15,0,0,1-3.43-3.43V151.15a3.32,3.32,0,0,1,.91-2.45,3.41,3.41,0,0,1,2.52-1,3.35,3.35,0,0,1,3.43,3.43v28.49l17-15.19a3.29,3.29,0,0,1,5.46,2.52,3.24,3.24,0,0,1-1.12,2.24l-12.88,11.48,13.58,16.66a3.18,3.18,0,0,1,.77,2.45,3.06,3.06,0,0,1-1.26,2.24,3.36,3.36,0,0,1-2.52.77,3.05,3.05,0,0,1-2.24-1.19l-13.3-16.45-3.5,3.08V199a3.41,3.41,0,0,1-1,2.52A3.32,3.32,0,0,1,170,202.39Z"/><path class="cls-2" d="M219.1,202.67a20,20,0,0,1-10-2.45,18.65,18.65,0,0,1-6.86-6.86,20.44,20.44,0,0,1-2.45-10.08,20.17,20.17,0,0,1,2.45-10.08,17.94,17.94,0,0,1,6.86-6.86,21,21,0,0,1,19.95,0,17.43,17.43,0,0,1,6.79,6.86,19.69,19.69,0,0,1,2.52,10.08,20.44,20.44,0,0,1-2.45,10.08,18.11,18.11,0,0,1-6.79,6.86A20,20,0,0,1,219.1,202.67Zm0-6.3a12.27,12.27,0,0,0,6.44-1.68,11.5,11.5,0,0,0,4.34-4.62,15.12,15.12,0,0,0,0-13.58,11.37,11.37,0,0,0-4.34-4.69,13.18,13.18,0,0,0-12.88,0,11.81,11.81,0,0,0-4.41,4.69,15.12,15.12,0,0,0,0,13.58,12,12,0,0,0,4.41,4.62A12.27,12.27,0,0,0,219.1,196.37Z"/><path class="cls-2" d="M261.52,202.67a17.06,17.06,0,0,1-9.17-2.52,18.91,18.91,0,0,1-6.44-6.93,21.11,21.11,0,0,1-2.31-9.94,19.67,19.67,0,0,1,2.52-9.94,19.14,19.14,0,0,1,16.8-9.52,18.71,18.71,0,0,1,9.8,2.59,18.4,18.4,0,0,1,6.86,6.93,19.22,19.22,0,0,1,2.59,9.94v15.61a3.53,3.53,0,0,1-1.05,2.59,3.41,3.41,0,0,1-2.52,1,3.37,3.37,0,0,1-3.57-3.57V196.3a18.25,18.25,0,0,1-5.95,4.69A16.91,16.91,0,0,1,261.52,202.67Zm1.4-6.3a12.12,12.12,0,0,0,6.37-1.68A12.5,12.5,0,0,0,273.7,190a14,14,0,0,0,1.61-6.72,13.69,13.69,0,0,0-1.61-6.72,12.05,12.05,0,0,0-10.78-6.44,12,12,0,0,0-6.37,1.75,12.41,12.41,0,0,0-4.48,4.69,13.8,13.8,0,0,0-1.61,6.72,14.08,14.08,0,0,0,1.61,6.72,13.18,13.18,0,0,0,4.48,4.69A12.4,12.4,0,0,0,262.92,196.37Z"/><path class="cls-2" d="M298.75,202.39a9.25,9.25,0,0,1-5.46-1.68,11.22,11.22,0,0,1-3.71-4.55,16.09,16.09,0,0,1-1.33-6.72V151.22a3.41,3.41,0,0,1,1-2.52,3.73,3.73,0,0,1,5,0,3.41,3.41,0,0,1,1,2.52v38.22a8.43,8.43,0,0,0,1,4.27,2.88,2.88,0,0,0,2.52,1.68h1.75a2.79,2.79,0,0,1,2.24,1,3.53,3.53,0,0,1,.91,2.52,3,3,0,0,1-1.33,2.52,5.66,5.66,0,0,1-3.43,1Z"/><path class="cls-2" d="M324.15,202.67a17,17,0,0,1-9.17-2.52,18.75,18.75,0,0,1-6.44-6.93,21.11,21.11,0,0,1-2.31-9.94,19.67,19.67,0,0,1,2.52-9.94,18.88,18.88,0,0,1,6.93-6.93,19.09,19.09,0,0,1,9.87-2.59,18.74,18.74,0,0,1,9.8,2.59,18.48,18.48,0,0,1,6.86,6.93,19.31,19.31,0,0,1,2.59,9.94v15.61a3.53,3.53,0,0,1-1.05,2.59,3.45,3.45,0,0,1-2.52,1,3.37,3.37,0,0,1-3.57-3.57V196.3a18.46,18.46,0,0,1-6,4.69A17,17,0,0,1,324.15,202.67Zm1.4-6.3a12.15,12.15,0,0,0,6.37-1.68,12.66,12.66,0,0,0,4.41-4.69,14.08,14.08,0,0,0,1.61-6.72,13.8,13.8,0,0,0-1.61-6.72,12,12,0,0,0-4.41-4.69,11.75,11.75,0,0,0-6.37-1.75,11.94,11.94,0,0,0-6.37,1.75,12.33,12.33,0,0,0-4.48,4.69,13.69,13.69,0,0,0-1.61,6.72A14,14,0,0,0,314.7,190a13.09,13.09,0,0,0,4.48,4.69A12.35,12.35,0,0,0,325.55,196.37Z"/><path class="cls-1" d="M257.76,14.83a.85.85,0,0,1-.29-1.16c2.21-3.65,2.71-4.82.34-6.44C250.6,2.29,239.2,0,228.94,0A53.77,53.77,0,0,0,215.6,1.53c-10.71,2.82-20.47,11.22-25.94,22.18a1.11,1.11,0,0,1-1.15.61c-3.62-.51-7.25-1-10.87-1.42a48.86,48.86,0,0,0-7.16.17.12.12,0,0,1-.1-.16c.55-1.09.83-1.6,1.07-2.15s.47-1.16.81-2a.35.35,0,0,0-.27-.46,45.93,45.93,0,0,0-23.88,3.65,1.1,1.1,0,0,1-1.29-.3C138.65,12,126.68,6.16,115.3,6.16h-.86c-12.16.32-30.74,7.33-38.91,17.31-1.82,2.23-1,3.21,2.12,6.1a.85.85,0,0,1,.06,1.2c-8.45,9.29-16.29,24.55-9,44.43a2.21,2.21,0,0,0,3.11,1.18,8.54,8.54,0,0,1,3.65-1h0a2.54,2.54,0,0,1,2,1.06C85,86.61,98.07,93.4,112,93.4a40.51,40.51,0,0,0,4.65-.26,2,2,0,0,1,2.23,1.8,36.21,36.21,0,0,0,1.61,7.62c3.33,9.53,11,15.11,19.86,19.16,12.69,5.82,26.1,7,39.76,5.16,12.16-1.59,23.49-5.59,33.07-13.56,7.77-6.48,12.84-14.45,12.46-25v0a2.13,2.13,0,0,1,2.27-2.12h.21c.82,0,1.64.08,2.46.08,18.74,0,34.7-12.5,40.18-27.74a2.33,2.33,0,0,1,1.36-1.42,6.15,6.15,0,0,1,2.11-.33,10.82,10.82,0,0,1,1.95.19,2.22,2.22,0,0,0,2.66-2C280.28,33.83,268.47,21.4,257.76,14.83ZM137.58,27.76q-2,1.38-4,2.89c-17.62,11.46-16.45,34.14-16.09,46.08,0,1.29.08,2.58.14,3.87a5.51,5.51,0,0,1-5.54,5.8H112c-11.56,0-23-5.78-29.24-14.73a8,8,0,0,0-4.38-3.26,7.67,7.67,0,0,0-3.68-.13.76.76,0,0,1-.91-.59,34.05,34.05,0,0,1-.56-12.91c1.28-8.41,5.69-15.07,10.17-19.85l4.27-4.54a.84.84,0,0,0,0-1.2L84.12,26a.85.85,0,0,1,0-1.27C92,18.21,105.6,13.41,114.62,13.17h.68c7.49,0,16,3.32,22.7,9.34A3.36,3.36,0,0,1,137.58,27.76Zm11.83,58.42a4.44,4.44,0,1,1,3.77-5A4.44,4.44,0,0,1,149.41,86.18ZM181.47,105c-3.71,5.26-15.1,5.85-19.35,1-1.14-1.32-.93-2.07-1-15.73,0-7.85-.13-10.45,1.92-13A9.61,9.61,0,0,1,178,76.6c2.21,2.33,2.34,4.77,3.07,13.1C182.2,102.8,182.48,103.56,181.47,105ZM193.07,84a4.44,4.44,0,1,1,3.77-5A4.44,4.44,0,0,1,193.07,84Zm78.12-34A8.1,8.1,0,0,0,268,51.06a8.33,8.33,0,0,0-3.59,4.44c-3.94,11.81-16.82,23.77-33.82,23.77-.68,0-1.37,0-2.06-.07h0a3.83,3.83,0,0,1-3.59-3.57c-.13-1.74-.26-3.48-.4-5.23-2.29-15.72-1.76-41.06-24-44.23a2.53,2.53,0,0,1-1.8-3.92c4.9-7.07,11.91-12.15,18.73-13.95A46.83,46.83,0,0,1,228.94,7c7.85,0,15.44,1.44,21,3.85a.85.85,0,0,1,.37,1.21l-2.46,4a.85.85,0,0,0,.29,1.16l5.37,3.17c8.27,4.89,17.54,13.68,18.41,28.77A.77.77,0,0,1,271.19,50Z"/><path class="cls-3" d="M271.88,49.19a.77.77,0,0,1-.69.82A8.1,8.1,0,0,0,268,51.06a8.33,8.33,0,0,0-3.59,4.44c-3.94,11.81-16.82,23.77-33.82,23.77-.68,0-1.37,0-2.06-.07h0a3.83,3.83,0,0,1-3.59-3.57c-.13-1.74-.26-3.48-.4-5.23-2.29-15.72-1.76-41.06-24-44.23a2.53,2.53,0,0,1-1.8-3.92c4.9-7.07,11.91-12.15,18.73-13.95A46.83,46.83,0,0,1,228.94,7c7.85,0,15.44,1.44,21,3.85a.85.85,0,0,1,.37,1.21l-2.46,4a.85.85,0,0,0,.29,1.16l5.37,3.17C261.74,25.31,271,34.1,271.88,49.19Z"/><path d="M193.07,84a4.44,4.44,0,1,1,3.77-5A4.44,4.44,0,0,1,193.07,84Z"/><path d="M181.47,105c-3.71,5.26-15.1,5.85-19.35,1-1.14-1.32-.93-2.07-1-15.73,0-7.85-.13-10.45,1.92-13A9.61,9.61,0,0,1,178,76.6c2.21,2.33,2.34,4.77,3.07,13.1C182.2,102.8,182.48,103.56,181.47,105Z"/><path d="M149.41,86.18a4.44,4.44,0,1,1,3.77-5A4.44,4.44,0,0,1,149.41,86.18Z"/><path class="cls-3" d="M137.58,27.76q-2,1.38-4,2.89c-17.62,11.46-16.45,34.14-16.09,46.08,0,1.29.08,2.58.14,3.87a5.51,5.51,0,0,1-5.54,5.8H112c-11.56,0-23-5.78-29.24-14.73a8,8,0,0,0-4.38-3.26,7.67,7.67,0,0,0-3.68-.13.76.76,0,0,1-.91-.59,34.05,34.05,0,0,1-.56-12.91c1.28-8.41,5.69-15.07,10.17-19.85l4.27-4.54a.84.84,0,0,0,0-1.2L84.12,26a.85.85,0,0,1,0-1.27C92,18.21,105.6,13.41,114.62,13.17h.68c7.49,0,16,3.32,22.7,9.34A3.36,3.36,0,0,1,137.58,27.76Z"/></g></g></svg>