<svg xmlns="http://www.w3.org/2000/svg" viewBox="0 0 344.8 55.11"><defs><style>.cls-1{fill:#fff;}</style></defs><g id="Layer_2" data-name="Layer 2"><g id="Layer_1-2" data-name="Layer 1"><path class="cls-1" d="M2.66,54.67a2.79,2.79,0,0,1-2-.7A2.79,2.79,0,0,1,0,52V2.66A2.55,2.55,0,0,1,.7.77a2.67,2.67,0,0,1,2-.77A2.45,2.45,0,0,1,4.55.77a2.45,2.45,0,0,1,.77,1.89V34.51L25.06,16.66a2.17,2.17,0,0,1,3.43.14,2.38,2.38,0,0,1,.7,1.82,2.06,2.06,0,0,1-.84,1.61l-14,12.67L28.91,50.82a2.23,2.23,0,0,1-.35,3.5,2.38,2.38,0,0,1-1.89.63A2.3,2.3,0,0,1,25,54L10.57,36.26,5.32,41.09V52a2.67,2.67,0,0,1-.77,2A2.55,2.55,0,0,1,2.66,54.67Z"/><path class="cls-1" d="M53.44,55a18.66,18.66,0,0,1-9.66-2.52,19.24,19.24,0,0,1-6.79-7,20.14,20.14,0,0,1-2.45-9.94,19.82,19.82,0,0,1,2.52-10,18.84,18.84,0,0,1,7-6.93A19.24,19.24,0,0,1,54,16a18.84,18.84,0,0,1,9.87,2.59,18.3,18.3,0,0,1,6.93,6.93,19.81,19.81,0,0,1,2.66,10V52a2.63,2.63,0,0,1-.77,2,2.77,2.77,0,0,1-2,.7,2.8,2.8,0,0,1-2-.7A2.67,2.67,0,0,1,68,52V47.74a17,17,0,0,1-6.16,5.32A17.93,17.93,0,0,1,53.44,55Zm.56-4.9a13.73,13.73,0,0,0,7.21-1.89,13.42,13.42,0,0,0,5-5.18,15,15,0,0,0,1.89-7.49,14.76,14.76,0,0,0-1.89-7.49A13.94,13.94,0,0,0,54,20.93a13.57,13.57,0,0,0-7.21,2,14,14,0,0,0-5.11,5.18,14.76,14.76,0,0,0-1.89,7.49,15,15,0,0,0,1.89,7.49A13.91,13.91,0,0,0,54,50.12Z"/><path class="cls-1" d="M95.59,54.67a2.7,2.7,0,0,1-2.52-1.82l-15.54-33a2.27,2.27,0,0,1-.07-1.82,2.56,2.56,0,0,1,1.4-1.4,2.26,2.26,0,0,1,1.89-.14,2.6,2.6,0,0,1,1.4,1.26L95.59,46.9l13.3-29.12a2.12,2.12,0,0,1,1.4-1.26,2.78,2.78,0,0,1,2,.07,2.59,2.59,0,0,1,1.33,1.47,2.09,2.09,0,0,1-.07,1.75l-15.33,33A2.79,2.79,0,0,1,95.59,54.67Z"/><path class="cls-1" d="M136,55a18.66,18.66,0,0,1-9.66-2.52,19.16,19.16,0,0,1-6.79-7,20.14,20.14,0,0,1-2.45-9.94,19.82,19.82,0,0,1,2.52-10,18.84,18.84,0,0,1,7-6.93A19.22,19.22,0,0,1,136.58,16a18.84,18.84,0,0,1,9.87,2.59,18.3,18.3,0,0,1,6.93,6.93,19.91,19.91,0,0,1,2.66,10V52a2.67,2.67,0,0,1-.77,2,3.09,3.09,0,0,1-3.92,0,2.67,2.67,0,0,1-.77-2V47.74a17.08,17.08,0,0,1-6.16,5.32A17.93,17.93,0,0,1,136,55Zm.56-4.9a13.73,13.73,0,0,0,7.21-1.89,13.42,13.42,0,0,0,5-5.18,15,15,0,0,0,1.89-7.49,14.76,14.76,0,0,0-1.89-7.49,13.94,13.94,0,0,0-12.25-7.14,13.57,13.57,0,0,0-7.21,2,14,14,0,0,0-5.11,5.18,14.76,14.76,0,0,0-1.89,7.49,15,15,0,0,0,1.89,7.49,13.91,13.91,0,0,0,12.32,7.07Z"/><path class="cls-1" d="M170,54.67a3.15,3.15,0,0,1-3.43-3.43V3.43A3.34,3.34,0,0,1,167.43,1,3.45,3.45,0,0,1,170,0a3.18,3.18,0,0,1,2.45,1,3.16,3.16,0,0,1,1,2.45V31.92l17-15.19a3.06,3.06,0,0,1,4.55.21,3,3,0,0,1,.91,2.31,3.22,3.22,0,0,1-1.12,2.24L181.85,33l13.58,16.66a3.19,3.19,0,0,1,.77,2.45,3,3,0,0,1-1.26,2.24,3.32,3.32,0,0,1-2.52.77,3,3,0,0,1-2.24-1.19l-13.3-16.45-3.5,3.08V51.24a3.38,3.38,0,0,1-1,2.52A3.28,3.28,0,0,1,170,54.67Z"/><path class="cls-1" d="M219.1,55a20,20,0,0,1-10-2.45,18.65,18.65,0,0,1-6.86-6.86,20.44,20.44,0,0,1-2.45-10.08,20.17,20.17,0,0,1,2.45-10.08,17.94,17.94,0,0,1,6.86-6.86,21,21,0,0,1,19.95,0,17.43,17.43,0,0,1,6.79,6.86,19.69,19.69,0,0,1,2.52,10.08,20.44,20.44,0,0,1-2.45,10.08,18.11,18.11,0,0,1-6.79,6.86A20,20,0,0,1,219.1,55Zm0-6.3A12.27,12.27,0,0,0,225.54,47a11.5,11.5,0,0,0,4.34-4.62,13.94,13.94,0,0,0,1.61-6.79,13.94,13.94,0,0,0-1.61-6.79,11.37,11.37,0,0,0-4.34-4.69,13.18,13.18,0,0,0-12.88,0,11.81,11.81,0,0,0-4.41,4.69,13.94,13.94,0,0,0-1.61,6.79,13.94,13.94,0,0,0,1.61,6.79A12,12,0,0,0,212.66,47,12.27,12.27,0,0,0,219.1,48.65Z"/><path class="cls-1" d="M261.52,55a17.06,17.06,0,0,1-9.17-2.52,18.91,18.91,0,0,1-6.44-6.93,21.09,21.09,0,0,1-2.31-9.94,19.67,19.67,0,0,1,2.52-9.94,19.14,19.14,0,0,1,16.8-9.52,18.71,18.71,0,0,1,9.8,2.59,18.4,18.4,0,0,1,6.86,6.93,19.22,19.22,0,0,1,2.59,9.94V51.17a3.51,3.51,0,0,1-1.05,2.59,3.41,3.41,0,0,1-2.52,1A3.37,3.37,0,0,1,275,51.17V48.58a18.25,18.25,0,0,1-5.95,4.69A16.91,16.91,0,0,1,261.52,55Zm1.4-6.3A12.12,12.12,0,0,0,269.29,47a12.5,12.5,0,0,0,4.41-4.69,14,14,0,0,0,1.61-6.72,13.69,13.69,0,0,0-1.61-6.72,12.05,12.05,0,0,0-10.78-6.44,12,12,0,0,0-6.37,1.75,12.41,12.41,0,0,0-4.48,4.69,13.8,13.8,0,0,0-1.61,6.72,14.08,14.08,0,0,0,1.61,6.72A13.18,13.18,0,0,0,256.55,47,12.4,12.4,0,0,0,262.92,48.65Z"/><path class="cls-1" d="M298.75,54.67A9.25,9.25,0,0,1,293.29,53a11.22,11.22,0,0,1-3.71-4.55,16.09,16.09,0,0,1-1.33-6.72V3.5a3.41,3.41,0,0,1,1-2.52,3.73,3.73,0,0,1,5,0,3.41,3.41,0,0,1,1,2.52V41.72a8.41,8.41,0,0,0,1,4.27,2.88,2.88,0,0,0,2.52,1.68h1.75a2.82,2.82,0,0,1,2.24,1,3.53,3.53,0,0,1,.91,2.52,3,3,0,0,1-1.33,2.52,5.66,5.66,0,0,1-3.43,1Z"/><path class="cls-1" d="M324.15,55A17,17,0,0,1,315,52.43a18.75,18.75,0,0,1-6.44-6.93,21.09,21.09,0,0,1-2.31-9.94,19.67,19.67,0,0,1,2.52-9.94,18.88,18.88,0,0,1,6.93-6.93,19.09,19.09,0,0,1,9.87-2.59,18.74,18.74,0,0,1,9.8,2.59,18.48,18.48,0,0,1,6.86,6.93,19.31,19.31,0,0,1,2.59,9.94V51.17a3.51,3.51,0,0,1-1.05,2.59,3.45,3.45,0,0,1-2.52,1,3.66,3.66,0,0,1-2.59-1,3.62,3.62,0,0,1-1-2.59V48.58a18.46,18.46,0,0,1-6,4.69A17,17,0,0,1,324.15,55Zm1.4-6.3A12.15,12.15,0,0,0,331.92,47a12.66,12.66,0,0,0,4.41-4.69,14.08,14.08,0,0,0,1.61-6.72,13.8,13.8,0,0,0-1.61-6.72,12,12,0,0,0-4.41-4.69,11.75,11.75,0,0,0-6.37-1.75,11.94,11.94,0,0,0-6.37,1.75,12.33,12.33,0,0,0-4.48,4.69,13.69,13.69,0,0,0-1.61,6.72,14,14,0,0,0,1.61,6.72A13.09,13.09,0,0,0,319.18,47,12.35,12.35,0,0,0,325.55,48.65Z"/></g></g></svg>