<svg xmlns="http://www.w3.org/2000/svg" viewBox="0 0 213.11 127.66"><defs><style>.cls-1{fill:#fff;}</style></defs><g id="Layer_2" data-name="Layer 2"><g id="Layer_1-2" data-name="Layer 1"><path class="cls-1" d="M191.92,14.83a.85.85,0,0,1-.29-1.16c2.21-3.65,2.71-4.82.34-6.44C184.76,2.29,173.36,0,163.1,0a53.77,53.77,0,0,0-13.34,1.53c-10.71,2.82-20.47,11.22-25.94,22.18a1.11,1.11,0,0,1-1.15.61c-3.62-.51-7.25-1-10.87-1.42a48.86,48.86,0,0,0-7.16.17.12.12,0,0,1-.1-.16c.55-1.09.83-1.6,1.07-2.15s.47-1.16.81-2a.35.35,0,0,0-.27-.46,45.93,45.93,0,0,0-23.88,3.65,1.1,1.1,0,0,1-1.29-.3C72.81,12,60.84,6.16,49.46,6.16H48.6C36.44,6.49,17.86,13.5,9.69,23.48c-1.82,2.23-1,3.21,2.12,6.1a.85.85,0,0,1,.06,1.2c-8.45,9.29-16.29,24.55-9,44.43A2.21,2.21,0,0,0,6,76.39a8.54,8.54,0,0,1,3.65-1h0a2.54,2.54,0,0,1,2,1.06c7.46,10.18,20.53,17,34.45,17a40.51,40.51,0,0,0,4.65-.26A2,2,0,0,1,53,94.94a36.21,36.21,0,0,0,1.61,7.62c3.33,9.53,11,15.11,19.86,19.16,12.69,5.82,26.1,7,39.76,5.16,12.16-1.59,23.49-5.59,33.07-13.56,7.77-6.48,12.84-14.45,12.46-25v0a2.13,2.13,0,0,1,2.27-2.12h.21c.82,0,1.64.08,2.46.08,18.74,0,34.7-12.5,40.18-27.74a2.33,2.33,0,0,1,1.36-1.42,6.15,6.15,0,0,1,2.11-.33,10.82,10.82,0,0,1,2,.19A2.22,2.22,0,0,0,213,55C214.44,33.83,202.63,21.4,191.92,14.83ZM71.74,27.76q-2,1.38-4,2.89C50.08,42.11,51.25,64.79,51.61,76.73c0,1.29.08,2.58.14,3.87a5.51,5.51,0,0,1-5.54,5.8h-.06c-11.56,0-23-5.78-29.24-14.73a8,8,0,0,0-4.38-3.26,7.67,7.67,0,0,0-3.68-.13.76.76,0,0,1-.91-.59,34.05,34.05,0,0,1-.56-12.91c1.28-8.41,5.69-15.07,10.17-19.85l4.27-4.54a.84.84,0,0,0-.05-1.2L18.28,26a.85.85,0,0,1,0-1.27c7.82-6.53,21.46-11.33,30.48-11.57h.68c7.49,0,16,3.32,22.7,9.34A3.36,3.36,0,0,1,71.74,27.76ZM83.57,86.18a4.44,4.44,0,1,1,3.77-5A4.44,4.44,0,0,1,83.57,86.18ZM115.63,105c-3.71,5.26-15.1,5.85-19.35,1-1.14-1.32-.93-2.07-1-15.73,0-7.85-.13-10.45,1.92-13a9.61,9.61,0,0,1,15-.58c2.21,2.33,2.34,4.77,3.07,13.1C116.36,102.8,116.64,103.56,115.63,105ZM127.23,84A4.44,4.44,0,1,1,131,79,4.44,4.44,0,0,1,127.23,84Zm78.12-34a8.1,8.1,0,0,0-3.21,1.05,8.33,8.33,0,0,0-3.59,4.44c-3.94,11.81-16.82,23.77-33.82,23.77-.68,0-1.37,0-2.06-.07h0a3.83,3.83,0,0,1-3.59-3.57c-.13-1.74-.26-3.48-.4-5.23-2.29-15.72-1.76-41.06-24-44.23a2.53,2.53,0,0,1-1.8-3.92c4.9-7.07,11.91-12.15,18.73-13.95A46.83,46.83,0,0,1,163.1,7c7.85,0,15.44,1.44,21,3.85a.85.85,0,0,1,.37,1.21l-2.46,4a.85.85,0,0,0,.29,1.16l5.37,3.17C195.9,25.31,205.17,34.1,206,49.19A.77.77,0,0,1,205.35,50Z"/><path d="M206,49.19a.77.77,0,0,1-.69.82,8.1,8.1,0,0,0-3.21,1.05,8.33,8.33,0,0,0-3.59,4.44c-3.94,11.81-16.82,23.77-33.82,23.77-.68,0-1.37,0-2.06-.07h0a3.83,3.83,0,0,1-3.59-3.57c-.13-1.74-.26-3.48-.4-5.23-2.29-15.72-1.76-41.06-24-44.23a2.53,2.53,0,0,1-1.8-3.92c4.9-7.07,11.91-12.15,18.73-13.95A46.83,46.83,0,0,1,163.1,7c7.85,0,15.44,1.44,21,3.85a.85.85,0,0,1,.37,1.21l-2.46,4a.85.85,0,0,0,.29,1.16l5.37,3.17C195.9,25.31,205.17,34.1,206,49.19Z"/><path d="M127.23,84A4.44,4.44,0,1,1,131,79,4.44,4.44,0,0,1,127.23,84Z"/><path d="M115.63,105c-3.71,5.26-15.1,5.85-19.35,1-1.14-1.32-.93-2.07-1-15.73,0-7.85-.13-10.45,1.92-13a9.61,9.61,0,0,1,15-.58c2.21,2.33,2.34,4.77,3.07,13.1C116.36,102.8,116.64,103.56,115.63,105Z"/><path d="M83.57,86.18a4.44,4.44,0,1,1,3.77-5A4.44,4.44,0,0,1,83.57,86.18Z"/><path d="M71.74,27.76q-2,1.38-4,2.89C50.08,42.11,51.25,64.79,51.61,76.73c0,1.29.08,2.58.14,3.87a5.51,5.51,0,0,1-5.54,5.8h-.06c-11.56,0-23-5.78-29.24-14.73a8,8,0,0,0-4.38-3.26,7.67,7.67,0,0,0-3.68-.13.76.76,0,0,1-.91-.59,34.05,34.05,0,0,1-.56-12.91c1.28-8.41,5.69-15.07,10.17-19.85l4.27-4.54a.84.84,0,0,0-.05-1.2L18.28,26a.85.85,0,0,1,0-1.27c7.82-6.53,21.46-11.33,30.48-11.57h.68c7.49,0,16,3.32,22.7,9.34A3.36,3.36,0,0,1,71.74,27.76Z"/></g></g></svg>