<svg width="174" height="28" viewBox="0 0 174 28" fill="none" xmlns="http://www.w3.org/2000/svg">
<path d="M1.36253 27.6543C0.958817 27.6543 0.656033 27.5534 0.353248 27.301C0.100928 27.0487 0 26.6955 0 26.2918V1.36252C0 0.958808 0.100928 0.656026 0.353248 0.403706C0.605568 0.151386 0.958817 0 1.36253 0C1.76624 0 2.06903 0.151386 2.32135 0.403706C2.57367 0.656026 2.72506 0.958808 2.72506 1.36252V17.4606L12.6665 8.42749C13.272 7.87238 13.8776 7.92285 14.3823 8.47795C14.6346 8.78074 14.7355 9.08353 14.7355 9.38631C14.7355 9.6891 14.5841 9.94141 14.3318 10.1937L7.26682 16.6027L14.6346 25.6357C15.1392 26.2918 15.0887 26.8469 14.4832 27.402C14.1804 27.6543 13.8776 27.7552 13.5244 27.7048C13.1711 27.7048 12.9188 27.5029 12.6665 27.2001L5.39965 18.268L2.72506 20.6903V26.1908C2.72506 26.5945 2.57367 26.8973 2.32135 27.2001C2.06903 27.5534 1.76624 27.6543 1.36253 27.6543Z" fill="white"/>
<path d="M26.9478 27.8561C25.1311 27.8561 23.5162 27.4524 22.0528 26.5945C20.6398 25.7366 19.4791 24.5255 18.6212 23.062C17.8138 21.5986 17.3596 19.8828 17.3596 18.0661C17.3596 16.1989 17.7633 14.4831 18.6212 13.0197C19.4791 11.5562 20.6902 10.3451 22.1537 9.53765C23.6172 8.67977 25.3329 8.22559 27.1496 8.22559C29.0168 8.22559 30.6821 8.67977 32.1456 9.53765C33.609 10.3955 34.8202 11.5562 35.6276 13.0197C36.4855 14.4831 36.9397 16.1989 36.9901 18.0661V26.3926C36.9901 26.7964 36.8387 27.0991 36.5864 27.4019C36.3341 27.6542 35.9808 27.7552 35.5771 27.7552C35.1734 27.7552 34.8706 27.6542 34.5679 27.4019C34.3155 27.1496 34.1641 26.7964 34.1641 26.3926V24.1722C33.3567 25.2824 32.3474 26.1908 31.0354 26.8468C29.9252 27.5028 28.5122 27.8561 26.9478 27.8561ZM27.2506 25.3834C28.6131 25.3834 29.8242 25.0806 30.884 24.4245C31.9437 23.7685 32.8016 22.9106 33.4072 21.8004C34.0632 20.6902 34.366 19.4286 34.366 18.0156C34.366 16.6026 34.0632 15.341 33.4072 14.2308C32.8016 13.1206 31.9437 12.2627 30.884 11.6067C29.8242 10.9507 28.6131 10.5974 27.2506 10.5974C25.888 10.5974 24.6769 10.9507 23.6172 11.6067C22.5574 12.2627 21.6491 13.1206 21.0435 14.2308C20.3875 15.341 20.0847 16.6026 20.0847 18.0156C20.0847 19.4286 20.3875 20.6902 21.0435 21.8004C21.6995 22.9106 22.5574 23.7685 23.6172 24.4245C24.6769 25.0806 25.888 25.3834 27.2506 25.3834Z" fill="white"/>
<path d="M48.2436 27.6543C47.6885 27.6543 47.2343 27.3515 46.982 26.7459L39.1601 10.0928C39.0087 9.79001 39.0087 9.48721 39.1096 9.18443C39.2106 8.88164 39.4629 8.62933 39.8161 8.47794C40.1694 8.32654 40.4722 8.27608 40.7749 8.42747C41.0777 8.5284 41.33 8.78073 41.4814 9.08351L48.2436 23.7685L54.9553 9.08351C55.1067 8.73026 55.3086 8.5284 55.6618 8.42747C56.0151 8.32654 56.3683 8.32654 56.6711 8.47794C57.0244 8.62933 57.2262 8.88165 57.3272 9.2349C57.4281 9.53768 57.4281 9.84047 57.2767 10.1433L49.5557 26.7964C49.3034 27.3515 48.8492 27.6543 48.2436 27.6543Z" fill="white"/>
<path d="M68.6311 27.8561C66.8144 27.8561 65.1995 27.4524 63.7361 26.5945C62.3231 25.7366 61.1624 24.5255 60.3045 23.062C59.4971 21.5986 59.0934 19.8828 59.0934 18.0661C59.0934 16.1989 59.4971 14.4831 60.355 13.0197C61.2129 11.5562 62.424 10.3451 63.8875 9.53765C65.3509 8.67977 67.0667 8.22559 68.8834 8.22559C70.7506 8.22559 72.4159 8.67977 73.8793 9.53765C75.3428 10.3955 76.5539 11.5562 77.3614 13.0197C78.2193 14.4831 78.6734 16.1989 78.7239 18.0661V26.3926C78.7239 26.7964 78.5725 27.0991 78.3202 27.4019C78.0679 27.6542 77.7146 27.7552 77.3109 27.7552C76.9072 27.7552 76.6044 27.6542 76.3016 27.4019C76.0493 27.1496 75.8979 26.7964 75.8979 26.3926V24.1722C75.0905 25.2824 74.0812 26.1908 72.7691 26.8468C71.6085 27.5028 70.1955 27.8561 68.6311 27.8561ZM68.9339 25.3834C70.2964 25.3834 71.5075 25.0806 72.5673 24.4245C73.627 23.7685 74.4849 22.9106 75.0905 21.8004C75.7465 20.6902 76.0493 19.4286 76.0493 18.0156C76.0493 16.6026 75.7465 15.341 75.0905 14.2308C74.4849 13.1206 73.627 12.2627 72.5673 11.6067C71.5075 10.9507 70.2964 10.5974 68.9339 10.5974C67.5713 10.5974 66.3602 10.9507 65.3005 11.6067C64.2407 12.2627 63.3828 13.1206 62.7268 14.2308C62.0708 15.341 61.768 16.6026 61.768 18.0156C61.768 19.4286 62.0708 20.6902 62.7268 21.8004C63.3828 22.9106 64.2407 23.7685 65.3005 24.4245C66.3602 25.0806 67.5713 25.3834 68.9339 25.3834Z" fill="white"/>
<path d="M85.7889 27.6543C85.2842 27.6543 84.83 27.5029 84.5273 27.2001C84.2245 26.8468 84.0731 26.4431 84.0731 25.9385V1.81668C84.0731 1.31204 84.2245 0.908316 84.5273 0.605532C84.8805 0.252283 85.2842 0.100891 85.7889 0.100891C86.2935 0.100891 86.6972 0.252283 87 0.605532C87.3532 0.908316 87.5046 1.31204 87.5046 1.81668V16.1989L96.0835 8.52839C96.4368 8.17514 96.8405 8.02375 97.2442 8.07422C97.6984 8.07422 98.0516 8.27608 98.3544 8.62933C98.7077 8.98257 98.8591 9.38628 98.8086 9.78999C98.8086 10.1937 98.6067 10.5974 98.2535 10.9002L91.7436 16.7036L98.6067 25.1311C98.9095 25.4843 99.0609 25.9385 99.0104 26.3422C99.0104 26.7459 98.7581 27.1496 98.3544 27.4524C98.0012 27.7552 97.547 27.9066 97.0928 27.8561C96.6386 27.8561 96.2854 27.6543 95.9826 27.2506L89.2709 18.9745L87.5046 20.5388V25.9385C87.5046 26.4431 87.3532 26.8973 87 27.2001C86.6972 27.5029 86.2935 27.6543 85.7889 27.6543Z" fill="#FAB445"/>
<path d="M110.567 27.8057C108.649 27.8057 106.984 27.402 105.52 26.5441C104.057 25.6862 102.896 24.5255 102.038 23.062C101.231 21.5986 100.777 19.8828 100.777 17.9652C100.777 16.0475 101.18 14.3318 102.038 12.8683C102.896 11.4049 104.057 10.2442 105.52 9.3863C106.984 8.52841 108.649 8.12469 110.567 8.12469C112.434 8.12469 114.099 8.52841 115.563 9.3863C117.026 10.1937 118.187 11.3544 118.994 12.8683C119.852 14.3318 120.256 16.0475 120.256 17.9652C120.256 19.8828 119.852 21.5481 119.045 23.062C118.237 24.5255 117.077 25.6862 115.613 26.5441C114.15 27.402 112.484 27.8057 110.567 27.8057ZM110.567 24.6264C111.778 24.6264 112.888 24.3237 113.796 23.7685C114.755 23.2134 115.462 22.406 115.966 21.4472C116.521 20.4379 116.774 19.3277 116.774 18.0156C116.774 16.7036 116.521 15.5934 115.966 14.5841C115.462 13.5748 114.705 12.7674 113.796 12.2123C112.838 11.6572 111.778 11.3544 110.567 11.3544C109.356 11.3544 108.245 11.6572 107.337 12.2123C106.378 12.7674 105.672 13.5748 105.117 14.5841C104.561 15.5934 104.309 16.7036 104.309 18.0156C104.309 19.3277 104.561 20.4379 105.117 21.4472C105.672 22.4565 106.378 23.2134 107.337 23.7685C108.245 24.3741 109.356 24.6264 110.567 24.6264Z" fill="#FAB445"/>
<path d="M131.963 27.8057C130.248 27.8057 128.683 27.402 127.321 26.5441C125.958 25.6862 124.848 24.5255 124.091 23.0621C123.334 21.5986 122.93 19.8828 122.93 18.0661C122.93 16.2494 123.334 14.5337 124.192 13.0702C125.05 11.6067 126.211 10.3956 127.674 9.58819C129.137 8.7303 130.803 8.27612 132.67 8.27612C134.487 8.27612 136.152 8.7303 137.615 9.58819C139.079 10.4461 140.24 11.6067 141.097 13.0702C141.955 14.5337 142.41 16.2494 142.41 18.0661V25.9385C142.41 26.4432 142.208 26.8974 141.854 27.2506C141.501 27.6039 141.097 27.7552 140.593 27.7552C140.088 27.7552 139.634 27.6039 139.281 27.2506C138.928 26.8974 138.776 26.4432 138.776 25.9385V24.6265C137.969 25.6357 136.959 26.3927 135.748 26.9983C134.638 27.5534 133.376 27.8057 131.963 27.8057ZM132.67 24.6265C133.881 24.6265 134.941 24.3237 135.9 23.7686C136.858 23.163 137.565 22.4061 138.12 21.3968C138.675 20.3875 138.927 19.2773 138.927 18.0157C138.927 16.7541 138.675 15.5934 138.12 14.6346C137.565 13.6253 136.858 12.8179 135.9 12.2628C134.941 11.6572 133.881 11.3544 132.67 11.3544C131.509 11.3544 130.399 11.6572 129.44 12.2628C128.481 12.8179 127.724 13.6253 127.169 14.6346C126.614 15.6439 126.362 16.7541 126.362 18.0157C126.362 19.2773 126.614 20.3875 127.169 21.3968C127.724 22.4061 128.481 23.163 129.44 23.7686C130.45 24.3742 131.509 24.6265 132.67 24.6265Z" fill="#FAB445"/>
<path d="M150.736 27.6543C149.676 27.6543 148.768 27.3515 147.961 26.7964C147.153 26.2413 146.548 25.4843 146.093 24.5255C145.639 23.5162 145.437 22.406 145.437 21.1444V1.86713C145.437 1.36249 145.589 0.908316 145.942 0.605532C146.295 0.252283 146.699 0.100891 147.204 0.100891C147.708 0.100891 148.162 0.252283 148.465 0.605532C148.818 0.95878 148.97 1.36249 148.97 1.86713V21.1444C148.97 22.0023 149.121 22.7088 149.474 23.3143C149.828 23.8695 150.231 24.1722 150.736 24.1722H151.644C152.099 24.1722 152.502 24.3236 152.755 24.6769C153.057 25.0301 153.209 25.4338 153.209 25.9385C153.209 26.4431 153.007 26.8973 152.553 27.2001C152.099 27.5533 151.544 27.7047 150.837 27.7047H150.736V27.6543Z" fill="#FAB445"/>
<path d="M163.554 27.8057C161.838 27.8057 160.274 27.402 158.911 26.5441C157.549 25.6862 156.439 24.5255 155.682 23.0621C154.925 21.5986 154.521 19.8828 154.521 18.0661C154.521 16.2494 154.925 14.5337 155.782 13.0702C156.64 11.6067 157.801 10.3956 159.265 9.58819C160.728 8.7303 162.393 8.27612 164.26 8.27612C166.077 8.27612 167.742 8.7303 169.206 9.58819C170.669 10.4461 171.83 11.6067 172.688 13.0702C173.546 14.5337 174 16.2494 174 18.0661V25.9385C174 26.4432 173.798 26.8974 173.495 27.2506C173.142 27.6039 172.738 27.7552 172.234 27.7552C171.729 27.7552 171.275 27.6039 170.922 27.2506C170.568 26.8974 170.417 26.4432 170.417 25.9385V24.6265C169.61 25.6357 168.6 26.3927 167.389 26.9983C166.229 27.5534 164.967 27.8057 163.554 27.8057ZM164.26 24.6265C165.472 24.6265 166.531 24.3237 167.49 23.7686C168.449 23.163 169.155 22.4061 169.711 21.3968C170.266 20.3875 170.518 19.2773 170.518 18.0157C170.518 16.7541 170.266 15.5934 169.711 14.6346C169.155 13.6253 168.449 12.8179 167.49 12.2628C166.531 11.6572 165.472 11.3544 164.26 11.3544C163.1 11.3544 161.99 11.6572 161.031 12.2628C160.072 12.8179 159.315 13.6253 158.76 14.6346C158.205 15.6439 157.952 16.7541 157.952 18.0157C157.952 19.2773 158.205 20.3875 158.76 21.3968C159.315 22.4061 160.072 23.163 161.031 23.7686C162.04 24.3742 163.1 24.6265 164.26 24.6265Z" fill="#FAB445"/>
</svg>
